<?xml version="1.0" standalone="no"?>
<!DOCTYPE svg PUBLIC "-//W3C//DTD SVG 1.1//EN" "http://www.w3.org/Graphics/SVG/1.1/DTD/svg11.dtd" >
<svg xmlns="http://www.w3.org/2000/svg">
<metadata>Generated by IcoMoon</metadata>
<defs>
<font id="deyel_font" horiz-adv-x="1024">
<font-face units-per-em="1024" ascent="960" descent="-64" />
<missing-glyph horiz-adv-x="1024" />
<glyph unicode="&#x20;" horiz-adv-x="512" d="" />
<glyph unicode="&#xe900;" glyph-name="deyel_calendario" d="M105.92 173.744h166.192v-164.496h-166.192v164.496zM309.008 173.744h184.608v-164.496h-184.608v164.496zM105.92 393.152h166.192v-182.816h-166.192v182.816zM309.008 393.152h184.608v-182.816h-184.608v182.816zM105.92 594.208h166.192v-164.496h-166.192v164.496zM530.464 173.744h184.656v-164.496h-184.656v164.496zM309.008 594.208h184.608v-164.496h-184.608v164.496zM752 173.744h166.224v-164.496h-166.224v164.496zM530.464 393.152h184.656v-182.816h-184.656v182.816zM321.936 691.28l-12.928-5.552h-37.008l-12.928 5.552-5.488 12.752v164.48l5.488 12.96 12.928 5.344h37.008l12.928-5.36 5.52-12.96v-164.48l-5.52-12.736zM752 393.152h166.224v-182.816h-166.224v182.816zM530.464 594.208h184.656v-164.496h-184.656v164.496zM752 594.208h166.224v-164.496h-166.224v164.496zM765.024 691.28l-13.024-5.552h-36.88l-12.944 5.552-5.568 12.752v164.48l5.568 12.96 12.944 5.36h36.88l13.024-5.36 5.44-12.96v-164.48l-5.44-12.752zM970.16 792.016c-14.688 14.4-31.968 21.632-52 21.632l-73.744 0.176v54.688c0 25.072-9.088 46.656-27.184 64.56-18.080 18.096-39.856 26.848-65.232 26.848l-36.88 0.080c-25.408 0-47.12-9.008-65.184-26.944-18.096-17.872-27.12-39.472-27.12-64.608v-54.64h-221.52v54.704c0 25.072-9.088 46.656-27.184 64.56-18.016 18.096-39.76 26.864-65.12 26.864l-36.992 0.064c-25.376 0-47.088-9.008-65.152-26.944-18.096-17.872-27.152-39.472-27.152-64.608l0.032-54.64h-73.808c-20.032 0-37.376-7.408-51.984-21.968-14.56-14.208-21.936-31.584-21.936-51.328v-731.264c0-19.728 7.376-37.056 21.952-51.536 14.592-14.256 31.936-21.712 51.936-21.712l812.336 0.064c20.032 0 37.248 7.248 51.904 21.664 14.624 14.528 21.872 31.632 21.872 51.44v731.456c0 19.728-7.312 36.832-21.84 51.392z" />
<glyph unicode="&#xe901;" glyph-name="deyel_filas" d="M1008.816 125.808c-10.128 10.032-22.16 15.008-35.984 15.008l-921.664 0.208c-13.808 0-25.856-5.36-35.968-15.44-10.080-9.872-15.2-22.144-15.2-35.968v-102.272c0-13.808 5.12-26.032 15.2-36.16 10.16-9.904 22.16-15.184 35.968-15.184l921.664 0.096c13.824 0 25.856 5.008 35.984 15.088 10.080 10.224 15.184 22.16 15.184 35.968v102.624c0 13.824-5.104 25.712-15.184 35.808v0.224zM1008.816 535.136c-10.128 10.336-22.16 15.2-35.984 15.2l-921.664 0.032c-13.808 0-25.856-5.152-35.968-15.232-10.080-10.080-15.2-22.144-15.2-35.968v-102.208c0-13.808 5.12-26.16 15.2-36.192 10.16-9.872 22.16-15.28 35.968-15.28l921.664 0.224c13.824 0 25.856 4.944 35.984 15.056 10.080 10.256 15.184 22.128 15.184 36.048v102.608c0 13.808-5.104 25.6-15.184 35.712v0zM1008.816 944.768c-10.128 10.368-22.16 15.088-35.984 15.088l-921.664 0.144c-13.808 0-25.856-5.072-35.968-15.344-10.080-9.968-15.2-22.128-15.2-35.936v-102.128c0-14.112 5.12-26.112 15.2-36.304 10.16-10.048 22.16-15.12 35.968-15.12l921.664 0.176c13.824 0 25.856 4.832 35.984 14.96 10.080 10.352 15.184 22.112 15.184 36.064v102.432c0 13.808-5.104 25.728-15.184 35.968z" />
<glyph unicode="&#xe902;" glyph-name="deyel_tarjetas" d="M637.248 960h322.288c35.472 0 64.464-28.864 64.464-64.16v-124.816c0-35.296-29.008-64.16-64.464-64.16h-322.288c-35.456 0-64.448 28.864-64.448 64.16v124.816c0 35.296 28.992 64.16 64.448 64.16zM637.248 574.576h322.288c35.472 0 64.464-28.864 64.464-64.16v-124.816c0-35.296-29.008-64.16-64.464-64.16h-322.288c-35.456 0-64.448 28.864-64.448 64.16v124.816c0 35.296 28.992 64.16 64.448 64.16zM637.248 189.136h322.288c35.472 0 64.464-28.896 64.464-64.16v-124.832c0-35.28-29.008-64.16-64.464-64.16h-322.288c-35.456 0-64.448 28.88-64.448 64.16v124.832c0 35.28 28.992 64.16 64.448 64.16zM64.448 960h322.288c35.456 0 64.464-28.864 64.464-64.16v-124.816c0-35.296-29.008-64.16-64.464-64.16h-322.288c-35.44 0.016-64.448 28.88-64.448 64.16v124.816c0 35.296 29.008 64.16 64.448 64.16zM64.448 574.576h322.288c35.456 0 64.464-28.864 64.464-64.16v-124.816c0-35.296-29.008-64.16-64.464-64.16h-322.288c-35.44 0.016-64.448 28.88-64.448 64.176v124.816c0 35.28 29.008 64.144 64.448 64.144zM64.448 189.136h322.288c35.456 0 64.464-28.896 64.464-64.16v-124.832c0-35.28-29.008-64.16-64.464-64.16h-322.288c-35.44 0.016-64.448 28.896-64.448 64.176v124.832c0 35.264 29.008 64.144 64.448 64.144z" />
<glyph unicode="&#xe903;" glyph-name="deyel_tarjetas_vista_previa" d="M63.936 957.040h319.68c35.168 0 63.92-28.832 63.92-64.080v-124.672c0-35.248-28.752-64.080-63.92-64.080h-319.68c-35.168 0.016-63.936 28.848-63.936 64.096v124.672c0 35.232 28.768 64.064 63.936 64.064zM63.936 572.096h319.68c35.168 0 63.92-28.832 63.92-64.080v-124.672c0-35.232-28.752-64.064-63.92-64.064h-319.68c-35.168 0-63.936 28.832-63.936 64.064v124.672c0 35.248 28.768 64.080 63.936 64.080zM63.936 187.104h319.68c35.168 0 63.92-28.832 63.92-64.080v-124.656c0-35.248-28.752-64.080-63.92-64.080h-319.68c-35.168 0.016-63.936 28.832-63.936 64.080v124.656c0 35.264 28.768 64.080 63.936 64.080zM642.176 958.304h317.888c35.168 0 63.936-28.832 63.936-64.080v-894.768c0-35.232-28.768-64.080-63.936-64.080h-317.888c-35.168 0-63.936 28.848-63.936 64.080v894.768c0 35.248 28.768 64.080 63.936 64.080z" />
<glyph unicode="&#xe904;" glyph-name="deyel_funcion" d="M0-64l148.976 584.752-59.68 9.744c-12.8 2.784-22.272 7.664-28.704 14.368-6.432 6.736-8.208 16.256-5.008 28.784l17.92 70.32h106.864l13.488 52.912c10.4 40.832 26.032 77.504 46.656 109.984s45.344 60.112 74.192 82.848c28.848 22.736 61.232 40.144 97.36 52.208 36.128 12.048 74.928 18.080 116.368 18.080 33.056 0 62.688-4.4 88.832-13.216l-25.472-86.336c-2.128-6.496-5.28-11.6-9.552-15.552-4.272-3.936-9.216-6.96-15.12-9.040-5.888-2.080-12.528-3.488-19.68-4.176-7.152-0.704-14.736-1.152-22.64-1.152-20.496 0-39.2-2.096-56.384-6.496s-32.88-12.064-46.832-22.976c-13.952-10.928-26-25.296-36.368-43.152-10.368-17.872-19.072-40.16-25.808-66.608l-12.064-47.328h186.496l-31.2-122.512h-180.944l-149.152-585.456h-172.544zM498.272 211.664c0-40.16 4.928-79.616 14.752-118.4 9.84-38.768 23.92-75.232 42.224-109.328 1.968-3.888 3.136-7.296 3.44-10.336 0.288-3.024 0-5.664-0.784-7.904s-1.968-4.176-3.648-5.824c-1.68-1.664-3.552-3.104-5.52-4.304l-32.448-19.568c-14.56 22.224-26.96 44.512-37.2 66.944-10.224 22.4-18.592 45.008-25.088 67.824-6.496 22.8-11.216 45.888-14.272 69.28s-4.624 47.264-4.624 71.632c0 24.336 1.568 48.32 4.624 71.792 3.040 23.504 7.76 46.576 14.272 69.376 6.496 22.816 14.864 45.424 25.088 67.728 10.24 22.32 22.64 44.528 37.2 66.752l32.464-19.296c1.968-1.168 3.824-2.528 5.52-4.192 1.664-1.664 2.864-3.6 3.648-5.84s1.056-4.864 0.784-7.904c-0.304-3.008-1.472-6.624-3.44-10.72-18.304-33.904-32.368-70.24-42.224-109.136-9.84-38.864-14.768-78.432-14.768-118.576v0zM882.016 28.368h-70.256c-5.312 0-9.552 1.376-12.8 4.112-3.248 2.704-5.984 5.824-8.176 9.344l-64.048 104.352c-0.976-3.312-2.080-6.432-3.36-9.36-1.264-2.928-2.752-5.664-4.336-8.192l-56.672-86.816c-2.16-3.328-4.832-6.336-7.952-9.168-3.152-2.816-7.088-4.288-11.824-4.288h-65.216l103.904 154.64-99.776 145.28h70.256c5.312 0 9.248-0.672 11.824-2.128 2.528-1.488 4.816-3.92 6.768-7.216l63.472-99.984c2.176 6.656 5.216 13.2 9.168 19.616l51.056 78.928c4.336 7.2 9.936 10.816 16.848 10.816h66.992l-99.488-142.064 103.616-157.872zM960.848 211.664c0 40.144-4.832 79.696-14.576 118.576-9.728 38.896-23.808 75.232-42.128 109.136-2.144 4.096-3.312 7.696-3.632 10.72-0.304 3.024-0.112 5.664 0.688 7.904s2.064 4.192 3.728 5.84c1.68 1.664 3.536 3.024 5.712 4.192l32.464 19.296c14.544-22.224 26.96-44.432 37.184-66.752 10.24-22.32 18.592-44.928 25.088-67.728 6.48-22.8 11.216-45.872 14.176-69.376 2.976-23.488 4.448-47.456 4.448-71.808s-1.472-48.24-4.416-71.632-7.68-46.48-14.176-69.28c-6.496-22.816-14.864-45.424-25.088-67.824-10.24-22.416-22.64-44.72-37.184-66.944l-32.464 19.584c-2.192 1.184-4.032 2.64-5.712 4.304-1.664 1.664-2.944 3.6-3.728 5.824-0.8 2.256-0.992 4.88-0.688 7.904 0.32 3.024 1.488 6.432 3.632 10.336 18.32 34.096 32.384 70.56 42.128 109.328 9.712 38.8 14.544 78.256 14.544 118.4z" />
<glyph unicode="&#xe905;" glyph-name="deyel_pata" d="M179.376 316.4c127.568-54.624 154.32-189.184 251.648-235.44s211.6 21.28 334.864-43.264c16.896-9.136 32.288-19.456 41.84-30.048 7.008-31.136 29.184-57.664 60.512-67.632 46.832-14.912 96.32 12.784 110.544 61.84 14.224 49.040-12.208 100.88-59.024 115.776-31.312 9.984-63.84 0.88-86.192-20.912-26.112-6.224-69.68 0.976-101.536 9.104-153.632 64.432-17.952 253.808 111.408 344.080 20.944 13.632 43.568 25.536 61.2 28.768 28.656-11.072 62.016-6.32 87.232 15.552 37.696 32.672 42.992 91.184 11.776 130.688-31.184 39.504-87.024 45.024-124.752 12.352-25.216-21.856-35.936-55.28-30.912-86.848-3.68-10.192-10.416-21.552-18.688-33.024-16.272-20.256-36.832-42.56-59.68-64.528l-0.224-0.208-62.288-53.984c-62.544-48.464-128.32-82.048-166.224-63.968-40.336 19.088-60.16 118.256-66.064 221.952l-1.952 72.912c0.144 52.224 3.552 100.944 9.344 135.952 2.272 8.56 4.992 16.288 8.224 22.624 25.968 16.832 42.928 47.296 42 81.584-1.36 51.248-42.128 91.632-91.040 90.192-48.912-1.424-87.472-44.128-86.096-95.376 0.912-34.288 19.472-63.696 46.288-79.008 9.376-16.16 15.76-42.176 19.76-67.888 21.040-174.992-25.824-460.72-181.568-374.848-24.496 19.168-51.552 44.368-62.624 65.808 0.928 31.984-13.952 63.6-41.744 81.728-41.552 27.088-96.192 13.76-122.048-29.76-25.856-43.536-13.152-100.784 28.4-127.856 27.792-18.128 61.456-18.144 88.432-3.152 13.936-0.544 31.488-5.856 49.184-13.168z" />
<glyph unicode="&#xe906;" glyph-name="deyel_regla" d="M746.64-64h-716.512c-16.64 0-30.128 13.584-30.128 30.32v963.36c0 16.736 13.488 30.32 30.128 30.32h477.392c7.984 0 15.632-3.184 21.28-8.864l239.12-240.192c5.664-5.68 8.848-13.408 8.848-21.456v-170.16c0-14.64-10.384-27.184-24.704-29.824-14.416-2.592-28.448 5.408-33.6 19.072l-2.624 6.944c-5.488 0.144-14.432 0.128-19.84 0l-17.040-48.432c-6.304-15.936-20-29.568-34.48-35.024l-19.328-7.552c-8.944-4.24-18.048-5.168-24.336-5.168-6.064 0-15.152 0.88-24.032 5.024l-45.424 21.92-14.464-14.544 21.632-45.424c6.864-14.768 6.864-35.040 0.128-49.584l-7.936-19.664c-5.104-13.744-18.656-27.536-33.36-33.456l-49.264-17.6c-0.064-2.768-0.128-6.224-0.128-10.128 0-3.68 0.048-7.008 0.128-9.68l48.128-17.152c15.456-5.84 29.216-19.696 34.8-34.688l8-19.728c6.352-14.448 6.24-34.208-0.368-48.448l-21.664-45.456 14.432-14.736 45.056 21.744c9.168 4.32 18.272 5.168 24.336 5.168 6.336 0 15.616-0.944 24.624-5.312l19.008-7.808c14.896-5.296 28.544-18.992 34.336-34.544l17.2-48.496c5.44-0.144 14.368-0.16 19.856 0l2.624 6.944c5.136 13.664 19.168 21.696 33.6 19.088 14.304-2.656 24.704-15.184 24.704-29.824v-26.656c0-16.72-13.504-30.304-30.128-30.304zM60.256-3.36h571.792l-9.456 26.656c-0.032 0.016-0.064 0.016-0.096 0.032l-20.896 8.592c-0.256 0.112-0.512 0.224-0.784 0.336l-49.968-24.112c-17.392-8.192-40.208-4.752-54.24 7.2-0.704 0.592-1.376 1.216-2.016 1.872l-26.048 26.656c-13.696 14.912-17.344 37.376-9.536 55.328l24.432 51.36c0.016 0.416 0.032 0.512 0.16 0.336v0c-0.048 0.112-0.080 0.224-0.128 0.32l-8.544 21.072-53.040 18.976c-17.792 6.688-31.36 24.16-33.52 42.656-0.080 0.592-0.128 1.232-0.16 1.84 0 0-0.464 8.432-0.464 20.16 0 12.176 0.464 20.592 0.464 20.592 0.032 0.608 0.080 1.248 0.16 1.856 2.16 18.48 15.728 35.952 33.008 42.464l52.976 18.912c0.272 0.224 0.592 0.528 0.816 0.784l8.288 20.432c0 0.4 0.032 0.56 0.080 0.56 0 0 0 0 0.016 0l-24.112 50.592c-8.176 17.584-5.168 39.936 7.152 54.608 0.544 0.64 1.12 1.264 1.696 1.856l26.48 26.64c0.592 0.592 1.2 1.152 1.824 1.68 14.016 11.968 37.328 15.2 54 7.36l50.24-24.24c0.416 0.192 0.848 0.368 1.28 0.544l19.968 7.792c0.24 0.224 0.512 0.512 0.72 0.768l18.592 52.784c6.704 17.92 24.048 31.568 42.384 33.728 0.592 0.064 1.232 0.128 1.84 0.16 0 0 8.368 0.464 20.464 0.464 3.904 0 7.44-0.048 10.416-0.128v100.752l-221.44 222.48h-434.8v-902.72zM746.64 659.168h-239.12c-16.64 0-30.128 13.568-30.128 30.32v240.192c0 12.256 7.328 23.312 18.592 28 11.248 4.688 24.208 2.096 32.816-6.544l239.12-240.192c8.624-8.672 11.2-21.712 6.544-33.056-4.656-11.328-15.632-18.72-27.824-18.72zM537.648 719.808h136.16l-136.16 136.784v-136.784zM706.080-64c-12.096 0-20.464 0.464-20.464 0.464-0.608 0.032-1.248 0.096-1.84 0.176-18.336 2.176-35.68 15.808-42.192 33.184l-18.992 53.472c-0.032 0.016-0.064 0.016-0.096 0.032l-20.896 8.592c-0.256 0.112-0.512 0.224-0.784 0.336l-49.968-24.112c-17.392-8.192-40.208-4.752-54.24 7.2-0.704 0.592-1.376 1.216-2.016 1.872l-26.048 26.656c-13.696 14.912-17.344 37.376-9.536 55.328l24.432 51.36c0.016 0.416 0.032 0.512 0.16 0.336v0c-0.048 0.112-0.080 0.224-0.128 0.32l-8.544 21.072-53.040 18.976c-17.792 6.688-31.36 24.16-33.52 42.656-0.080 0.592-0.128 1.232-0.16 1.84 0 0-0.464 8.432-0.464 20.16 0 12.176 0.464 20.592 0.464 20.592 0.032 0.608 0.080 1.248 0.16 1.856 2.16 18.48 15.728 35.952 33.008 42.464l52.976 18.912c0.272 0.224 0.592 0.528 0.816 0.784l8.288 20.432c0 0.464 0.032 0.576 0.096 0.56l-24.112 50.592c-8.176 17.584-5.168 39.936 7.152 54.608 0.544 0.64 1.12 1.264 1.696 1.856l26.48 26.64c0.592 0.592 1.2 1.152 1.824 1.68 14.016 11.968 37.328 15.2 54 7.36l50.24-24.24c0.416 0.192 0.848 0.368 1.28 0.544l19.968 7.792c0.24 0.224 0.512 0.512 0.72 0.768l18.592 52.784c6.704 17.92 24.048 31.568 42.384 33.728 0.592 0.064 1.232 0.128 1.84 0.16 0 0 8.368 0.464 20.464 0.464 11.648 0 20.016-0.464 20.016-0.464 0.624-0.032 1.248-0.096 1.856-0.16 19.52-2.32 37.088-16.64 42.752-34.832l18.128-51.392c0.144-0.176 0.336-0.352 0.496-0.512l20.784-8.544c0.272-0.112 0.528-0.224 0.8-0.336l49.952 24.096c19.76 8.752 40.256 4.72 54.256-7.2 0.656-0.544 1.264-1.12 1.856-1.712l26.464-26.64c0.576-0.592 1.12-1.2 1.664-1.808 12.384-14.688 15.392-37.040 7.296-54.4l-23.84-50.976c0.048-0.128 0.096-0.224 0.128-0.336l8.416-20.736 52.832-19.312c17.712-6.688 31.28-24.16 33.456-42.624 0.064-0.608 0.128-1.248 0.16-1.856 0 0 0.464-8.416 0.464-20.592 0-11.712-0.464-20.16-0.464-20.16-0.032-0.608-0.096-1.248-0.16-1.84-2.176-18.48-15.728-35.952-33.008-42.48l-53.12-19.072c0-0.016-0.016-0.048-0.016-0.064l-8.528-21.056c-0.048-0.128-0.112-0.256-0.16-0.368l23.84-50.88c8.112-17.44 5.088-39.776-7.28-54.448-0.528-0.64-1.072-1.232-1.648-1.824l-26.464-26.64c-0.608-0.608-1.232-1.184-1.888-1.728-8.944-7.6-20.672-11.76-33.056-11.76v0c-7.024 0-14.016 1.44-20.208 4.144l-51.040 24.608c-0.464 0.016-0.528 0.064-0.336 0.176h-0.016l-20.096-8.864c-0.416-0.192-0.816-0.336-1.216-0.512-0.112-0.096-0.24-0.224-0.336-0.336l-18.432-52.4c-5.264-17.088-22.848-31.424-42.368-33.728-0.608-0.080-1.232-0.144-1.856-0.176-0.064-0.048-8.448-0.512-20.080-0.512zM695.984-3.232c5.392-0.144 14.24-0.144 19.744-0.016l17.024 48.432c6.176 15.648 20 29.12 34.464 34.448l19.408 8.544c8.336 3.92 17.632 4.8 23.84 4.8s15.504-0.896 24.464-5.088l45.424-21.904 14.48 14.576-21.328 45.584c-7.184 13.488-7.456 33.84-0.208 49.040l7.76 19.168c5.248 14.928 18.832 28.656 34.256 34.512l48.288 17.344c0.064 2.688 0.128 6.016 0.128 9.696 0 3.92-0.064 7.376-0.144 10.144l-47.76 17.168c-15.872 6-29.504 19.744-34.752 34.704l-7.76 19.152c-7.248 15.2-6.96 35.616 0.88 50.4l20.656 44.224-14.496 14.592-45.12-21.792c-9.152-4.304-18.256-5.168-24.336-5.168-6.336 0-15.616 0.96-24.64 5.328l-19.2 7.888c-14.304 5.28-28.096 18.832-33.888 33.408l-17.456 49.552c-5.504 0.144-14.352 0.112-19.712 0l-17.040-48.432c-6.304-15.936-20-29.568-34.48-35.024l-19.328-7.552c-8.944-4.24-18.048-5.168-24.336-5.168-6.064 0-15.152 0.88-24.032 5.024l-45.424 21.92-14.464-14.544 21.632-45.424c6.864-14.768 6.864-35.040 0.128-49.584l-7.936-19.664c-5.104-13.744-18.656-27.536-33.36-33.456l-49.264-17.6c-0.064-2.768-0.128-6.224-0.128-10.128 0-3.68 0.048-7.008 0.128-9.68l48.128-17.152c15.456-5.84 29.216-19.696 34.8-34.688l8-19.728c6.352-14.448 6.24-34.224-0.368-48.448l-21.664-45.456 14.432-14.736 45.056 21.744c9.168 4.32 18.272 5.168 24.336 5.168 6.336 0 15.616-0.944 24.624-5.312l19.008-7.808c14.896-5.296 28.544-18.992 34.336-34.544l17.2-48.464zM706.080 135.376c-66.304 0-120.24 54.080-120.24 120.544 0 66.72 53.936 121.008 120.24 121.008 66.048 0 119.776-54.288 119.776-121.008 0-66.464-53.728-120.544-119.776-120.544zM706.080 316.288c-33.056 0-59.968-27.072-59.968-60.352 0-33.024 26.912-59.92 59.968-59.92 32.832 0 59.536 26.896 59.536 59.92 0 33.264-26.704 60.352-59.536 60.352z" />
<glyph unicode="&#xe907;" glyph-name="deyel_proceso" d="M938.96 300.512h-121.792v209.184l206.832 208.992-238.848 241.312-207.008-209.136h-164.464v96.496c0 29.472-23.856 53.584-53.040 53.584h-307.6c-29.184 0-53.040-24.112-53.040-53.584v-257.344c0-29.488 23.856-53.6 53.040-53.6h121.952v-416.144c0-0.64 0.144-1.232 0.192-1.872 0-0.048-0.016-0.096-0.016-0.144 0-17.776 14.256-32.192 31.84-32.192h371.312v-96.48c0-29.504 23.856-53.6 53.040-53.6h307.6c29.184 0.016 53.040 24.112 53.040 53.616v257.344c0 29.472-23.856 53.568-53.040 53.568zM238.688 150.432v385.984h121.952c29.184 0 53.040 24.112 53.040 53.6v96.48h164.496l174.992-176.8v-209.184h-121.808c-29.184 0-53.040-24.096-53.040-53.584v-96.496h-339.632z" />
<glyph unicode="&#xe908;" glyph-name="deyel_comando" d="M512-64c-282.32 0-512 229.696-512 512 0 282.336 229.68 512 512 512s512-229.664 512-512c0-282.304-229.68-512-512-512zM512 899.76c-249.104 0-451.76-202.656-451.76-451.76 0-249.088 202.656-451.744 451.76-451.744s451.76 202.656 451.76 451.744c0 249.104-202.656 451.76-451.76 451.76zM369.872 195.392c-5.408 0-10.896 1.456-15.824 4.512-14.144 8.768-18.496 27.328-9.728 41.472l284.16 458.32c8.784 14.16 27.328 18.512 41.472 9.728 14.144-8.768 18.496-27.328 9.728-41.472l-284.176-458.304c-5.696-9.216-15.536-14.256-25.632-14.256z" />
<glyph unicode="&#xe909;" glyph-name="deyel_campanas" d="M1022.496 823.296c-1.872 29.664-5.808 58.112-12.016 86.928-5.568 25.888-23.248 45.696-192.256 45.696h-3.904c-221.248 0-337.008-123.312-419.568-248.56h-198.048c-33.152 0-63.504-15.104-83.088-40.432h-2.208l-8.576-17.008c-2.368-4.688-7.12-13.888-13.328-25.856-85.52-165.040-89.504-179.264-89.504-191.824 0-14.56 5.424-28.128 14.832-38.48v-4.384l17.088-8.528c8.048-4.032 13.856-6.928 111.344-6.928 28.416 0 58.464 0.272 83.44 0.496l-9.856-21.040c-2.688-5.6-5.472-10.688-7.984-15.328-9.36-17.2-25.008-46-1.712-69.184 2.416-2.384 7.648-7.68 14.688-14.832 117.84-119.392 120.528-119.616 135.44-120.8l7.968-0.656 72.8 32.592c-1.632-169.648 0.96-182.608 6.352-193.392 8.784-17.632 26.4-29.6 46-31.664l4.048-8.208 221.12 109.824c17.44 8.608 32.064 21.824 42.288 38.288 10.224 16.4 15.616 35.376 15.616 54.816v196.8c126.208 82.256 250.528 197.344 250.528 416.48l-1.504 75.184zM818.24 894.336c86.096 0 121.024-5.648 133.968-8.864 4.208-21.76 6.928-43.312 8.304-64.688l1.408-72.256c-57.472 44.48-116.080 102.976-149.52 145.76 0.656 0 1.28 0.048 1.936 0.048h3.904zM725.696 374.336l-14.336-9.072v-230.416c0-8.016-2.192-15.776-6.368-22.48-4.144-6.64-10.048-12-17.152-15.52l-186.976-92.864c-2.064 33.52-1.104 127.616-0.672 170.704 0.176 16.768 0.304 30.368 0.304 38.336v47.664l-136.080-60.928c-16.672 15.44-49.584 48.048-98.256 97.344-2.096 2.144-4.048 4.112-5.808 5.888 1.056 1.984 2.176 4.048 3.152 5.856 2.976 5.456 6.208 11.456 9.52 18.336l51.12 109.216h-48.624c-7.984 0-21.616-0.128-38.416-0.304-26.64-0.256-61.328-0.608-93.84-0.608-44.256 0-66.688 0.672-78 1.328 14.368 33.504 62.336 126.096 79.44 159.072 1.744 3.376 3.392 6.544 4.896 9.456l8.832 17.024c7.264 14.432 21.936 23.392 38.288 23.392h232.032l9.136 14.288c89.408 139.712 180.752 209.76 302.944 228.704 36.768-60.032 134.704-157.008 215.664-212.736-18.848-121.328-89.488-212.256-230.8-301.68zM710.224 779.632c-56.032 0-104.192-32.048-125.728-83.648-21.504-51.472-10.24-107.856 29.376-147.152l9.088-9.024h1.040c24.384-19.808 54.576-30.592 86.224-30.592 31.52 0 61.632 10.704 86.176 30.592l10.192 9.024c39.632 39.312 50.896 95.728 29.376 147.216-21.536 51.568-69.696 83.584-125.744 83.584zM763.952 593.664l-1.92-1.84c-14.064-13.552-32.448-21.008-51.808-21.008s-37.744 7.456-51.808 21.008l-1.776 1.696c-24.576 25.344-23.824 57.28-14.816 78.912 9.216 22.064 32.016 45.632 68.4 45.632 36.4 0 59.2-23.536 68.4-45.552 9.040-21.632 9.776-53.52-14.672-78.848z" />
<glyph unicode="&#xe90a;" glyph-name="deyel_notas" d="M647.536-64h-647.536v1024h1024v-647.536h-376.464v-376.464zM60.24-3.76h527.056v376.464h376.464v527.056h-903.52v-903.52zM632.464-64c-7.696 0-15.408 2.944-21.296 8.832-11.76 11.76-11.76 30.816 0 42.576l361.424 361.424c11.76 11.76 30.816 11.76 42.576 0s11.76-30.832 0-42.592l-361.408-361.408c-5.888-5.888-13.584-8.832-21.296-8.832z" />
<glyph unicode="&#xe90b;" glyph-name="deyel_oportunidad" d="M771.648 852.448c-69.392 69.36-161.616 107.552-259.648 107.552s-190.256-38.192-259.632-107.552c-69.36-69.36-107.552-161.568-107.552-259.648 0-123.92 38.24-170.928 82.544-225.392 27.136-33.328 57.872-71.136 84.592-140.704 4.272-11.104 10.736-20.992 18.688-29.536-7.616-11.248-12.064-24.784-12.064-39.344v-56.752c0-26.208 10.96-50.64 29.936-67.92 6.176-49.424 41.216-97.152 91.088-97.152h144.784c49.872 0 84.928 47.744 91.088 97.168 19.008 17.296 29.952 41.712 29.952 67.904v56.752c0 14.56-4.448 28.112-12.064 39.344 7.936 8.528 14.4 18.384 18.704 29.52 26.704 69.568 57.44 107.36 84.576 140.736 44.288 54.432 82.544 101.44 82.544 225.376 0.016 98.064-38.176 190.272-107.536 259.648zM397.776 167.68h228.448c1.152 0 2.304 0.208 3.44 0.256h5.408c5.6 0 10.144-4.528 10.144-10.112v-56.752c0-8.464-3.408-16.352-9.264-22.288h-247.904c-5.856 5.904-9.264 13.792-9.264 22.288v56.752c0 5.584 4.544 10.112 10.128 10.112h5.392c1.184-0.048 2.32-0.256 3.472-0.256zM584.384-3.76h-144.784c-9.328 0-18.688 9.376-24.848 22.336h194.496c-6.176-12.96-15.52-22.336-24.864-22.336zM749.904 405.392c-28.48-35.008-63.92-78.608-94.048-157.056-2.336-6.064-6.368-11.2-11.696-14.848-4.816-3.312-10.416-4.992-16.224-5.312h-231.872c-5.808 0.336-11.408 2-16.272 5.344-5.296 3.632-9.312 8.736-11.632 14.752-30.16 78.56-65.616 122.144-94.112 157.184-41.552 51.072-69.008 84.832-69.008 187.344 0 82 31.936 159.072 89.904 217.056 58.016 57.984 135.088 89.904 217.056 89.904 81.952 0 159.040-31.936 217.040-89.92 57.984-57.984 89.904-135.072 89.904-217.056 0.016-102.512-27.44-136.256-69.040-187.392zM496.944 798.96c-50.992 0-98.96-19.904-135.056-56.016-36.144-36.112-56.032-84.080-56.032-135.072 0-16.64 13.488-30.128 30.112-30.128 16.64 0 30.112 13.488 30.112 30.128 0 34.896 13.632 67.744 38.4 92.48 24.736 24.736 57.568 38.368 92.464 38.368 16.64 0 30.128 13.488 30.128 30.112s-13.504 30.128-30.128 30.128z" />
<glyph unicode="&#xe90c;" glyph-name="deyel_presupuesto" d="M512 960c-282.32 0-512-229.68-512-512s229.68-512 512-512c282.336 0 512 229.664 512 512s-229.664 512-512 512zM512-3.76c-249.104 0-451.76 202.656-451.76 451.76s202.656 451.76 451.76 451.76c249.104 0 451.76-202.672 451.76-451.776 0-249.088-202.656-451.744-451.76-451.744zM523.568 478.64c-19.68 6.448-38.272 12.528-53.968 19.824-41.456 19.248-53.456 34.992-53.456 70.144 0 73.040 89.808 75.152 100.032 75.152 45.312 0 98.416-24.112 98.944-92.032l60.24 0.448c-0.624 80.784-54.256 139.392-133.216 149.936v75.648h-60.24v-76.672c-65.616-10.816-125.984-53.2-125.984-132.464 0-73.632 42.448-103.488 88.336-124.784 18.928-8.784 40.096-15.728 60.576-22.416 69.808-22.88 112.592-39.664 112.592-94.064 0-49.488-42.656-66.176-68.064-71.712-49.52-10.72-115.040 4.144-134.672 47.040-4.848 10.56-7.584 23.488-8.096 38.4l-60.208-2.096c0.8-22.944 5.36-43.616 13.536-61.424 22.080-48.256 70.64-74.704 121.984-82.832v-76.496h60.24v75.328c6.816 0.8 13.536 1.792 20.048 3.216 71.216 15.52 115.472 65.552 115.472 130.56-0.016 100.832-89.088 130-154.096 151.296z" />
<glyph unicode="&#xe90d;" glyph-name="deyel_tareas" d="M456.736 486.080h567.264v-61.104h-567.264v61.104zM145.328 312.016l-129.328 129.296 43.216 43.2 86.112-86.080 178.992 178.992 43.2-43.216zM456.736 860.896h567.264v-61.104h-567.264v61.104zM167.216 707.296c-67.84 0-123.024 55.2-123.024 123.040s55.2 123.056 123.024 123.056c67.856 0 123.040-55.2 123.040-123.056s-55.2-123.040-123.040-123.040zM167.216 892.288c-34.144 0-61.92-27.776-61.92-61.936s27.776-61.936 61.92-61.936c34.16 0 61.936 27.776 61.936 61.936s-27.792 61.936-61.936 61.936zM145.328-70.608l-129.328 129.312 43.216 43.2 86.112-86.096 178.992 178.992 43.2-43.2zM456.736 103.456h567.264v-61.088h-567.264v61.088z" />
<glyph unicode="&#xe90e;" glyph-name="deyel_contacto" d="M589.376-66.624h-154.768c-16.096 0-31.232 6.272-42.592 17.664-11.344 11.344-17.632 26.464-17.632 42.56v251.344h-17.664c-15.792 0-30.608 5.968-41.84 16.848l-0.8 0.784c-11.344 11.328-17.6 26.448-17.6 42.608v264.816c0 28.336 10.896 54.96 30.672 75.040l0.656 0.672c20.16 20.16 47.008 31.264 75.632 31.264h25.040l5.76-2.512c18.752-8.176 54.224-13.072 77.68-13.072 22.976 0 59.264 5.008 77.84 13.072l5.744 2.512h24.976c28.592 0 55.44-11.12 75.664-31.328s31.344-47.056 31.344-75.648v-264.832c0-16.128-6.256-31.248-17.6-42.592l-8.816-8.832h-2.4c-9.376-5.744-20.16-8.816-31.44-8.816h-17.632v-251.328c0-16.096-6.256-31.2-17.632-42.576-11.344-11.36-26.464-17.648-42.592-17.648zM387.888 305.168h46.736v-311.568l154.784 0.016-0.048 311.568 77.984 0.080-0.064 264.752c0 12.48-4.88 24.208-13.68 33.040-8.848 8.832-20.592 13.696-33.088 13.696h-12.912c-27.472-10.24-67.872-15.584-95.664-15.584-27.008 0-67.152 4.896-95.568 15.584h-12.912c-12.368 0-23.968-4.72-32.72-13.312l-0.384-0.4c-8.784-8.768-13.616-20.496-13.616-33.024l0.032-264.928 31.12 0.080zM512 681.12c-36.928 0-71.616 14.336-97.664 40.384l-8.816 9.744c-20.496 24.704-31.648 55.504-31.648 88 0 36.896 14.352 71.584 40.416 97.68 26.128 26.080 60.816 40.432 97.696 40.432s71.568-14.352 97.68-40.416l21.408-21.36-2.384-2.352c13.952-21.92 21.44-47.376 21.44-73.984 0-36.896-14.368-71.584-40.464-97.68-26.096-26.080-60.784-40.448-97.664-40.448zM458.88 762.208c14.432-13.472 33.184-20.864 53.12-20.864 20.8 0 40.352 8.096 55.072 22.816s22.816 34.272 22.816 55.088-8.096 40.368-22.816 55.072l-1.792 1.776c-14.48 13.584-33.312 21.040-53.28 21.040-20.816 0-40.384-8.096-55.12-22.8-14.672-14.688-22.768-34.272-22.768-55.088 0-20.8 8.096-40.368 22.832-55.088l1.936-1.952z" />
<glyph unicode="&#xe90f;" glyph-name="deyel_cuenta" d="M976.096-31.664v829.792h-160.032l-0.048 97.984h-351.696v63.888h-64.64v-63.888h-352.192l0.096-927.792h-47.584v-64.656h1024v64.656h-47.904zM368.32-31.664v176.496c36.848 15.312 90.528 15.312 127.376 0v-176.496h-127.376zM560.336-31.664v214.352l-15.456 9.456c-30.8 18.864-70.896 29.232-112.88 29.232s-82.080-10.368-112.88-29.232l-15.44-9.456v-214.352h-191.456l-0.080 863.136h639.248l0.448-863.152h-191.504zM816.496-31.664l-0.4 765.168h95.344v-765.168h-94.944zM207.056 718.24h63.984v-65.296h-63.984v65.296zM207.056 554.928h63.984v-65.28h-63.984v65.28zM207.056 391.632h63.984v-65.28h-63.984v65.28zM399.12 718.24h63.984v-65.296h-63.984v65.296zM399.12 554.928h63.984v-65.28h-63.984v65.28zM399.12 391.632h63.984v-65.28h-63.984v65.28zM591.184 718.24h64v-65.296h-64v65.296zM591.184 554.928h64v-65.28h-64v65.28zM591.184 391.632h64v-65.28h-64v65.28z" />
<glyph unicode="&#xe910;" glyph-name="deyel_ejecucion" d="M1008.208 95.232v1.776l-8.864 8.848c-15.056 14.976-34.112 22.896-55.072 22.896l-204.464 0.208c-20.752 0-39.824-8.080-54.944-23.12-15.264-14.96-23.344-34.112-23.344-55.392v-36c0-21.008 7.968-40.112 23.376-55.584 15.344-14.976 34.32-22.864 54.912-22.864l204.416 0.096c20.992 0 40.064 7.952 55.296 23.168 15.040 15.248 22.992 34.272 22.992 55.008v36.352c0 16.32-4.896 31.504-14.304 44.608zM348.16-64v0c-20.608 0-39.6 7.888-54.912 22.864-15.408 15.472-23.376 34.576-23.376 55.584v36c0 21.296 8.064 40.432 23.344 55.392 15.104 15.040 34.176 23.12 54.928 23.12l204.448-0.208c20.944 0 40-7.904 55.056-22.88l8.896-8.848v-1.792c9.392-13.088 14.304-28.304 14.304-44.608v-36.352c0-20.752-7.952-39.76-22.976-55.008-15.28-15.216-34.336-23.168-55.312-23.168l-204.4-0.096zM348.112 68.72c-3.344 0-7.488-0.688-12.576-5.744-3.824-3.744-5.44-7.552-5.44-12.528v-36c0-5.056 1.664-8.896 5.52-12.784 4.864-4.736 9.072-5.424 12.512-5.424l204.4 0.096c5.104 0 8.768 1.568 12.608 5.408 3.808 3.872 5.44 7.568 5.44 12.528v36.352c0 4.912-1.584 8.48-5.472 12.368l-1.936 1.92c-3.152 2.528-6.368 3.6-10.624 3.6l-204.432 0.208zM1024 406.88h-1024v553.12h1024v-553.12zM60.24 467.12h903.536v432.64h-903.536v-432.64zM0 960h1024v-150.592h-1024v150.592zM0 341.456h1024v-150.576h-1024v150.576z" />
<glyph unicode="&#xe911;" glyph-name="deyel_nuevo_mensaje" d="M512 896c-282.8 0-512-186.208-512-416 0-99.216 42.8-190 114-261.392-25.008-100.816-108.608-190.592-109.6-191.6-4.4-4.608-5.616-11.408-3.008-17.408s8.192-9.6 14.592-9.6c132.608 0 232 63.6 281.216 102.784 65.392-24.592 138-38.784 214.8-38.784 282.784 0 512 186.192 512 416 0 229.792-229.216 416-512 416zM688.16 449.28h-144v-144h-64v144h-144v64h144v144h64v-144h144v-64z" />
<glyph unicode="&#xe912;" glyph-name="deyel_firma_digital" d="M502.304 852.672c-31.248 31.248-81.872 31.248-113.12 0l-237.536-237.552c-12.496-12.496-12.496-32.752 0-45.248l45.248-45.28c12.496-12.496 32.752-12.496 45.264 0l203.648 203.648 45.248-45.248-303.12-303.056c-104.928-104.912-171.2-242.656-187.584-390.144l-0.048-0.448c-3.376-30.544 22.416-56.384 52.992-53.008 147.648 16.24 285.712 82.592 390.72 187.584l393.568 393.552-335.28 335.2zM693.696 123.296c-15.216-2.416-3.264-1.344 8.144-0.896 4.64 2.256 3.744 2.816-8.144 0.896zM995.872 811.632l-120.208 120.224c-37.504 37.488-98.32 37.488-135.792 0l-113.104-113.12 256.032-256.016 113.072 113.088c37.504 37.504 37.504 98.32 0 135.824zM331.232-96.88c-18.336 0-33.2 14.88-33.2 33.2s14.864 33.2 33.2 33.2c193.184 0 261.984 128.432 298.944 197.456 17.040 31.856 30.512 56.976 60.4 52.048 33.648-5.648 39.36-41.184 51.904-119.088 10.896-67.68 21.424-98.576 27.936-112.336 21.76 30.096 53.504 118.304 73.472 173.776 47.68 132.496 72.592 196.416 117.28 201.728l3.2 0.368 3.2-0.24c12.080-0.928 23.28-7.12 31.584-17.504 43.744-54.72 33.36-326.512 23.696-392.032-2.672-18.144-19.52-30.576-37.68-28-18.144 2.672-30.672 19.552-28 37.68 11.152 75.648 10.896 231.328-0.336 304.912-16.32-34.48-35.936-89.040-50.464-129.424-53.024-147.36-86.128-230.992-142.96-225.136-42.528 3.952-66.784 53.2-86.496 175.632-1.088 6.8-2.144 13.152-3.136 19.056-44.24-77.536-136.288-205.296-342.544-205.296z" />
<glyph unicode="&#xe913;" glyph-name="deyel_timeline" d="M616.576 690.48c0 93.568-68.24 171.312-157.504 186.592v50.928c0 17.664-14.336 32-32 32s-32-14.336-32-32v-50.944c-89.28-15.28-157.504-93.024-157.504-186.592s68.224-171.312 157.504-186.592v-111.776c-89.28-15.264-157.504-93.008-157.504-186.56s68.224-171.296 157.504-186.576v-50.96c0-17.664 14.336-32 32-32s32 14.336 32 32v50.976c89.264 15.28 157.504 93.008 157.504 186.576s-68.24 171.296-157.504 186.56v111.776c89.264 15.28 157.504 93.024 157.504 186.592zM333.584 690.48c0 51.552 41.952 93.504 93.504 93.504s93.504-41.952 93.504-93.504-41.952-93.504-93.504-93.504-93.504 41.952-93.504 93.504zM520.576 205.552c0-51.568-41.952-93.504-93.504-93.504s-93.504 41.936-93.504 93.504c0 51.552 41.952 93.488 93.504 93.488s93.504-41.952 93.504-93.488zM707.664 734.768h316.336v-96h-316.336v96zM707.664 253.536h316.336v-96h-316.336v96zM0 734.768h146.464v-96h-146.464v96zM0 253.536h146.464v-96h-146.464v96z" />
<glyph unicode="&#xe914;" glyph-name="deyel_ayuda_formulario" d="M0 959.984v-1023.968h1024v1023.968h-1024zM960 0.016h-896v895.968h896v-895.968zM464.944 535.808l11.264-3.6 13.952 7.216c21.6 27.36 37.648 44.624 48.16 51.824 12.896 8.672 29.072 13.664 48.576 13.664 18.368 0.032 34.496-5.024 48.448-14.4 13.904-10.048 20.88-20.88 20.88-33.824 0.032-13.664-3.728-25.216-11.216-33.84-7.456-8.608-20.080-17.28-37.792-25.2-23.408-10.8-44.864-26.64-64.368-48.944-19.488-22.304-29.296-45.36-29.296-70.544v-20.16l4.8-17.248 11.408-7.936h108.080l12.624 7.216 5.36 14.336c0 7.248 4.096 17.28 12.384 30.256 8.288 12.256 18.496 22.32 30.816 28.816 11.744 7.216 20.88 12.256 27.488 16.544 6.592 3.632 15.2 10.064 25.856 19.44 10.656 8.624 18.944 17.968 24.752 26.624 5.856 8.656 11.104 20.176 15.776 34.576 4.624 13.68 6.992 28.768 6.992 45.344 0.048 25.2-6.192 48.96-18.464 71.28-12.32 23.040-28.192 41.728-47.696 57.6-19.488 15.136-41.472 28.064-65.728 37.44-24.304 9.392-48.448 13.68-72.48 13.68-91.2 0.016-160.848-39.616-208.864-119.536l-2.416-12.96 6.976-10.784 73.728-56.88zM639.616 304.048h-108.064l-12.592-5.776-5.424-12.224v-108.032l5.424-12.944 12.592-5.056h108.064l12.592 5.056 5.424 12.944v108.032l-5.424 12.224zM258.88 168.032c17.664 0 32 14.336 32 32v495.968c0 17.664-14.336 32-32 32s-32-14.336-32-32v-495.984c0-17.664 14.32-31.984 32-31.984z" />
<glyph unicode="&#xe915;" glyph-name="deyel_ayuda_actividad" d="M512 960l-512-512 512-512 512 512-512 512zM88.224 448l423.776 423.76 423.776-423.76-423.776-423.776-423.776 423.776zM552.976 324.032h-93.040l-10.848-4.976-4.672-10.528v-92.992l4.672-11.2 10.848-4.336h93.040l10.832 4.336 4.672 11.2v92.992l-4.672 10.528zM675.056 602.368c-10.608 19.84-24.288 35.952-41.072 49.616-16.784 13.024-35.696 24.16-56.608 32.224-20.928 8.096-41.712 11.792-62.416 11.792-78.528 0.016-138.496-34.112-179.84-102.944l-2.096-11.152 6.016-9.28 63.536-48.992 9.68-3.088 12.032 6.208c18.592 23.568 32.4 38.416 41.456 44.624 11.104 7.472 25.040 11.776 41.84 11.776 15.808 0.016 29.696-4.336 41.712-12.4 11.968-8.64 17.984-17.984 17.984-29.136 0.016-11.744-3.216-21.696-9.664-29.136-6.4-7.408-17.296-14.88-32.544-21.696-20.16-9.296-38.624-22.944-55.424-42.144-16.784-19.216-25.232-39.056-25.232-60.784v-17.344l4.128-14.848 9.824-6.848h93.056l10.864 6.224 4.624 12.336c0 6.256 3.536 14.912 10.672 26.064 7.12 10.528 15.936 19.216 26.528 24.784 10.128 6.256 17.984 10.56 23.664 14.288 5.664 3.12 13.088 8.672 22.272 16.752 9.168 7.424 16.32 15.472 21.312 22.928 5.040 7.456 9.568 17.376 13.6 29.776 3.984 11.776 6.016 24.784 6.016 39.040 0.032 21.696-5.328 42.144-15.92 61.36z" />
<glyph unicode="&#xe916;" glyph-name="deyel_relaciones" d="M1013.12 760.208c-38.512 143.76-186.288 229.072-330.048 190.544-134.192-35.952-217.376-167.12-196.512-301.344l-200.672-55.968c-32.128 60.944-103.040 93.904-172.4 75.328-80.48-21.568-128.256-104.32-106.688-184.8s104.304-128.272 184.8-106.688c7.36 1.968 14.352 4.624 21.136 7.584l75.984-105.376c-49.152-49.152-71.568-122.336-52.288-194.32 28.752-107.312 139.040-171.008 246.368-142.256 107.312 28.752 171.008 139.072 142.256 246.384-11.328 42.24-35.392 77.568-66.816 103.296l87.696 150.672c53.84-23.328 115.552-29.488 176.624-13.12 143.776 38.528 229.088 186.304 190.56 330.064zM502.912 324.784c-38.352 14.8-81.488 18.208-124.24 6.752-13.44-3.6-26.192-8.48-38.16-14.464l-75.824 105.136c26.432 29.456 40.944 68.752 38.512 109.616l200.72 56c18.784-45.696 49.136-83.968 86.752-112.288l-87.76-150.752z" />
<glyph unicode="&#xe917;" glyph-name="deyel_mensaje" d="M512.016 896.096c-283.008 0-512.048-186.4-512.048-415.904 0-99.328 42.64-190.032 113.84-261.696-24.944-100.688-108.4-190.496-109.312-191.408-4.528-4.528-5.904-11.312-3.168-17.216 2.72-6.336 8.16-9.968 14.512-9.968 132.896 0 232.224 63.936 281.2 102.944 65.76-24.496 138.336-39.008 214.976-39.008 283.008 0 512.048 186.4 512.048 416.352 0 229.488-229.056 415.904-512.048 415.904v0z" />
<glyph unicode="&#xe918;" glyph-name="deyel_filtro" d="M46.72 756.672l560.512-0.032c19.968-63.808 79.808-110.256 150.32-110.256s130.336 46.432 150.304 110.24h69.44c25.792 0 46.72 20.848 46.72 46.544s-20.928 46.544-46.72 46.544h-69.424c-19.952 63.824-79.792 110.288-150.32 110.288-70.512 0-130.352-46.448-150.32-110.272l-560.512 0.032c-25.808 0-46.72-20.832-46.72-46.544s20.912-46.544 46.72-46.544zM757.552 866.912c35.264 0 63.952-28.576 63.952-63.696 0-35.136-28.688-63.712-63.952-63.712-35.248 0-63.936 28.576-63.936 63.712 0 35.12 28.688 63.696 63.936 63.696zM977.28 494.512l-560.528 0.048c-19.952 63.792-79.776 110.256-150.304 110.256s-130.352-46.448-150.304-110.24h-69.424c-25.808 0-46.72-20.848-46.72-46.544s20.912-46.544 46.72-46.544h69.408c19.952-63.808 79.776-110.288 150.32-110.288 70.528 0 130.368 46.448 150.32 110.272l560.512-0.032c25.792 0 46.72 20.832 46.72 46.528s-20.928 46.544-46.72 46.544zM266.448 384.304c-35.264 0-63.952 28.576-63.952 63.696 0 35.136 28.688 63.712 63.952 63.712s63.952-28.576 63.952-63.712c0-35.12-28.704-63.696-63.952-63.696zM977.28 139.328h-69.424c-19.936 63.808-79.776 110.304-150.32 110.304-70.512 0-130.352-46.464-150.32-110.288l-560.496 0.048c-25.808 0-46.72-20.832-46.72-46.544 0-25.696 20.912-46.544 46.72-46.544l560.528-0.048c19.952-63.808 79.792-110.256 150.304-110.256s130.336 46.448 150.304 110.24h69.44c25.792 0 46.72 20.832 46.72 46.544-0.016 25.696-20.944 46.544-46.736 46.544zM757.552 29.088c-35.248 0-63.936 28.576-63.936 63.712s28.688 63.712 63.936 63.712c35.264 0 63.952-28.576 63.952-63.712s-28.688-63.712-63.952-63.712z" />
<glyph unicode="&#xe919;" glyph-name="deyel_caminos_paralelos" d="M770.992 534.416h221.248c17.552 0 31.776 14.304 31.776 31.936s-14.24 31.92-31.776 31.92h-221.248c-11.664 0-21.136 9.536-21.136 21.232v255.392c0 11.712 9.488 21.248 21.136 21.248h221.248c17.552 0 31.776 14.304 31.776 31.936s-14.24 31.92-31.776 31.92h-221.248c-46.704 0-84.688-38.176-84.688-85.104v-90.656l-381.584-1.008-0.032-131.056-167.472-168.256c-0.752 0.048-1.456 0.24-2.224 0.24l-102.96 0.832c-0.080 0-0.176 0-0.256 0-17.44 0-31.632-14.128-31.776-31.664-0.144-17.632 13.984-32.032 31.52-32.176l102.96-0.832c0.096 0 0.192 0 0.272 0 0.848 0 1.648 0.192 2.48 0.256l167.456-168.272 0.032-139.264 381.584-1.008v-90.912c0-46.944 37.984-85.12 84.688-85.12h221.248c17.552 0 31.776 14.32 31.776 31.936s-14.24 31.936-31.776 31.936h-221.248c-11.664 0-21.136 9.52-21.136 21.248v255.36c0 11.728 9.488 21.248 21.136 21.248h221.248c17.552 0 31.776 14.304 31.776 31.936s-14.24 31.92-31.776 31.92h-221.248c-46.704 0-84.688-38.176-84.688-85.104v-100.592l-318.048 0.848-0.016 65.824 208.672 209.664-208.688 209.68 0.016 57.648 318.048 0.832v-100.864c0.016-46.928 38-85.104 84.704-85.104zM341.296 305.792l-145.712 146.432 145.712 146.4 145.712-146.4-145.712-146.432zM325.408 508.672v-40.48h-40.288c-8.768 0-15.888-7.152-15.888-15.968s7.104-15.952 15.888-15.952h40.288v-40.48c0-8.8 7.104-15.952 15.888-15.952 8.768 0 15.888 7.136 15.888 15.952v40.48h40.288c8.768 0 15.888 7.136 15.888 15.952s-7.104 15.968-15.888 15.968h-40.288v40.48c0 8.816-7.104 15.952-15.888 15.952-8.768 0-15.888-7.136-15.888-15.952z" />
<glyph unicode="&#xe91a;" glyph-name="deyel_parametrizacion" d="M177.792 843.84v84.16h-64.128v-84.144c-65.008-14.704-113.728-72.992-113.728-142.56s48.72-127.84 113.712-142.544l-0.016-590.752h64.128l0.032 590.768c64.976 14.704 113.68 72.976 113.68 142.528s-48.704 127.824-113.68 142.544zM145.696 619.2c-45.008 0-81.648 36.832-81.648 82.096 0 45.28 36.624 82.112 81.648 82.112s81.648-36.832 81.648-82.112c0-45.264-36.624-82.096-81.648-82.096zM544.064 337.232l0.032 590.768h-64.128l-0.032-590.784c-64.992-14.704-113.696-72.976-113.696-142.544s48.704-127.824 113.68-142.544l-0.016-84.128h64.128l0.016 84.112c65.008 14.704 113.728 72.976 113.728 142.56s-48.72 127.84-113.712 142.56zM512 112.56c-45.008 0-81.648 36.832-81.648 82.112s36.624 82.112 81.648 82.112c45.024 0 81.664-36.832 81.664-82.112s-36.64-82.112-81.664-82.112zM1024.064 701.296c0 69.568-48.704 127.84-113.68 142.56v84.144h-64.112l-0.016-84.16c-64.992-14.704-113.696-72.992-113.696-142.56s48.72-127.824 113.696-142.544l-0.032-590.736h64.128l0.032 590.752c64.976 14.72 113.68 72.976 113.68 142.544zM878.32 619.2c-45.008 0-81.648 36.832-81.648 82.096 0 45.28 36.624 82.112 81.648 82.112 45.008 0 81.632-36.832 81.632-82.112-0.016-45.264-36.64-82.096-81.632-82.096z" />
<glyph unicode="&#xe91b;" glyph-name="deyel_candado_cerrado" d="M512 106.88c-26.512 0-48 21.488-48 48v118.192c0 26.512 21.488 48 48 48s48-21.488 48-48v-118.192c0-26.528-21.488-48-48-48zM752 469.904c-17.664 0-31.968 14.288-32 31.952l-0.304 183.152c0 114.656-93.232 207.904-207.84 207.904-114.608-0.016-207.856-93.248-207.856-207.856l0.080-183.136c0-17.664-14.32-32-31.984-32.016 0 0 0 0-0.016 0-17.664 0-32 14.32-32 31.984l-0.080 183.152c0 149.92 121.952 271.856 271.856 271.856 149.888 0 271.84-121.952 271.84-271.84l0.304-183.104c0.032-17.68-14.288-32.016-31.952-32.048-0.016 0-0.032 0-0.048 0zM898.8-60.912h-773.584c-44.112 0-80 35.888-80 80v389.76c0 44.112 35.888 80 80 80h773.584c44.112 0 79.984-35.888 79.984-80v-389.744c0-44.112-35.872-80.016-79.984-80.016zM125.216 424.864c-8.672 0-16-7.344-16-16.016v-389.744c0-8.672 7.328-16 16-16h773.584c8.672 0 15.984 7.328 15.984 16v389.744c0 8.672-7.312 16.016-15.984 16.016h-773.584z" />
<glyph unicode="&#xe91c;" glyph-name="deyel_roles" d="M852.832 284.768c99.984 53.616 168.336 157.648 170.592 277.568 0.384 1.984 0.624 4.016 0.624 6.096 0 2.064-0.272 4.048-0.32 6.096v32.352l-2.176-0.4c-19.12 159.76-156.688 284.128-323.28 284.128-49.008 0-95.36-11.072-137.088-30.336-61.36 63.632-145.776 99.744-235.472 99.744-174.56 0-317.072-136.608-325.008-307.344l-0.192-0.176-0.096-5.392c-0.096-3.104-0.48-6.144-0.48-9.28 0-0.976 0.32-1.872 0.4-2.816-0.672-82.032 31.152-160.048 90-219.936 24.032-24.464 51.68-44.8 81.536-60.688-88.4-30.4-156.208-89.872-156.208-181.936v-62.288l372.56-66.736v-2.672l620.064-111.072v173.392c0.048 91.808-67.392 151.216-155.456 181.696zM698.288 310.16c-84.64 0-159.84 40.048-207.648 101.792-2.928 3.776-5.728 7.632-8.416 11.552-2.336 3.376-4.656 6.768-6.816 10.272-3.248 5.248-6.224 10.64-9.072 16.080-1.248 2.352-2.608 4.624-3.76 7.008-4.032 8.336-7.664 16.864-10.768 25.568-0.176 0.48-0.304 0.992-0.464 1.488-2.816 8.032-5.184 16.224-7.2 24.496-0.704 2.976-1.248 6-1.856 9.008-1.136 5.552-2.144 11.136-2.912 16.752-0.608 4.592-1.072 9.216-1.44 13.872-0.176 2.064-0.24 4.144-0.352 6.208l132.032 110.432c7.216-8.944 14.752-17.328 22.464-25.424l2.72-3.072 1.216-1.056c13.312-13.584 27.408-25.872 42.192-36.976l2.544-2.24 3.712-2.432c8.336-5.968 16.88-11.536 25.648-16.72l4.32-2.816 2.944-1.328c17.088-9.584 35.008-17.744 53.728-24.464l3.264-1.488 4.064-1.12c12.48-4.192 25.328-7.712 38.496-10.656l3.92-1.088 1.904-0.272c16.48-3.424 33.552-5.808 51.072-7.296l1.728-0.256 0.016 0.128c0.656-0.048 1.328-0.096 1.984-0.144v-0.144l3.952-0.128c11.008-0.752 22.176-1.264 33.6-1.264 0.768 0 1.568 0.064 2.336 0.064l1.424-0.048 7.824 0.112 3.488 0.288c20.48 0.576 41.744 2.288 63.728 5.168l2.96 0.24c-18.56-124.368-127.44-220.096-258.576-220.096zM958.56 595.232l-0.704-0.128c-1.44-0.208-2.768-0.288-4.208-0.48l-71.888-5.856c-1.584-0.016-3.28-0.192-4.864-0.192l-40.48 1.728c-0.848 0.080-1.696 0.112-2.528 0.192l-44.32 7.040c-0.56 0.128-1.072 0.288-1.648 0.416l-48 15.296c-0.896 0.352-1.808 0.672-2.688 1.056l-32.64 16.368c-0.72 0.416-1.456 0.784-2.176 1.216l-53.664 41.168c-0.56 0.544-1.12 1.088-1.664 1.632l-65.68 83.408-131.936-110.352c0.288 0.896 0.496 1.824 0.8 2.72 0.928 2.704 1.984 5.344 2.992 8.016 1.872 4.912 3.872 9.76 6.016 14.56 1.232 2.72 2.464 5.456 3.792 8.144 2.56 5.2 5.344 10.272 8.272 15.28 1.104 1.888 2.096 3.856 3.248 5.728 3.952 6.4 8.224 12.608 12.72 18.64 1.84 2.48 3.824 4.848 5.76 7.264 3.008 3.76 6.096 7.456 9.328 11.040 2.304 2.576 4.64 5.104 7.040 7.584 3.344 3.456 6.848 6.768 10.384 10.032 2.336 2.144 4.56 4.384 6.976 6.432 5.504 4.72 11.232 9.2 17.136 13.472 2.816 2.032 5.744 3.904 8.656 5.824 3.808 2.544 7.68 5.008 11.664 7.36 39.248 23.2 85.040 36.672 134.032 36.672 135.104 0.032 246.64-101.52 260.272-231.28zM325.712 895.968c66.784 0 129.984-24.8 178.128-69.024-3.648-2.688-7.072-5.616-10.592-8.432-1.056-0.864-2.16-1.68-3.216-2.56-15.36-12.672-29.504-26.64-42.224-41.776-0.896-1.056-1.728-2.176-2.608-3.248-5.2-6.352-10.144-12.896-14.848-19.616-1.312-1.888-2.608-3.76-3.888-5.664-4.48-6.72-8.704-13.6-12.672-20.64-0.8-1.408-1.664-2.784-2.448-4.224-4.656-8.544-8.944-17.28-12.8-26.224-0.56-1.312-1.024-2.672-1.584-4-2.272-5.44-4.544-10.896-6.496-16.464-8.656 2.72-16.992 5.872-25.152 9.264-4.112 1.712-8.064 3.728-12.064 5.632-3.968 1.872-7.984 3.696-11.84 5.76-4 2.128-7.856 4.48-11.728 6.784-4.016 2.4-8.032 4.8-11.936 7.408-3.040 2.016-6 4.176-8.976 6.32-5.168 3.76-10.272 7.632-15.248 11.792-1.504 1.248-3.008 2.496-4.496 3.792-21.44 18.64-41.344 41.104-60.32 68.080l-20.032 28.496-132.096-110.48c33.952 103.728 132.8 179.024 249.136 179.024zM64.496 623.248l132.56 110.88c11.232-13.936 23.232-26.56 35.68-38.432 1.552-1.488 3.072-3.056 4.64-4.528 3.744-3.456 7.6-6.736 11.456-10 4.4-3.776 8.848-7.488 13.376-11.008 2.256-1.728 4.544-3.424 6.832-5.104 6.416-4.736 12.96-9.248 19.616-13.488 1.232-0.768 2.448-1.568 3.68-2.32 7.68-4.768 15.552-9.216 23.584-13.344 0.768-0.4 1.536-0.816 2.32-1.216 8.24-4.144 16.672-8 25.312-11.52 0.864-0.352 1.712-0.768 2.592-1.12 8.72-3.472 17.616-6.656 26.752-9.488 0.752-0.24 1.488-0.544 2.256-0.768 0.096-0.032 0.208-0.080 0.32-0.112-0.24-1.712-0.256-3.44-0.464-5.168-0.56-4.608-0.896-9.28-1.248-13.952-0.24-3.168-0.656-6.336-0.784-9.52l-0.128-0.112v-8.368c-0.032-2.048-0.32-4.032-0.32-6.096 0-1.008 0.336-1.952 0.416-2.944 0.096-8.256 0.544-16.48 1.28-24.672 0.24-2.88 0.416-5.776 0.736-8.64 0.736-6.384 1.824-12.72 2.944-19.040 0.704-4.064 1.264-8.16 2.112-12.176 0.688-3.216 1.68-6.352 2.48-9.536 2.928-11.808 6.528-23.344 10.72-34.608 1.328-3.584 2.528-7.216 3.984-10.752 1.92-4.624 4.112-9.088 6.256-13.6 2.224-4.768 4.448-9.52 6.912-14.16 1.872-3.52 3.888-6.912 5.888-10.336 2-3.472 3.808-7.040 5.952-10.432-30.448-12.144-62.32-18.288-95.12-18.288-70.96 0-140.592 29.44-191.024 80.752-44.112 44.88-69.232 102.384-71.568 163.216zM79.776 172.464c0 93.376 123.696 142.24 245.872 142.24 72.432 0 138.144-16.256 183.232-44-1.904-0.912-3.696-1.872-5.568-2.816-2.128-1.040-4.256-2.112-6.336-3.2-1.6-0.848-3.152-1.696-4.72-2.576-2.992-1.648-5.936-3.328-8.848-5.056-0.768-0.448-1.536-0.928-2.304-1.392-46.544-28.448-80.288-68.544-89.936-121.12-0.080-0.384-0.144-0.768-0.224-1.136-0.56-3.2-1.024-6.448-1.408-9.728-0.176-1.424-0.336-2.848-0.464-4.272-0.224-2.384-0.368-4.832-0.496-7.28-0.064-1.184-0.208-2.352-0.24-3.568l-308.56 55.248v8.656zM944.24 6.304l-491.904 88.096v8.672c0 5.568 0.496 10.944 1.344 16.176 0.128 0.848 0.336 1.632 0.496 2.464 0.912 4.816 2.064 9.552 3.664 14.096 0.032 0.112 0.080 0.224 0.112 0.336 25.456 71.808 133.472 109.168 240.336 109.168 122.224 0 245.936-48.864 245.936-142.24v-96.768z" />
<glyph unicode="&#xe91d;" glyph-name="deyel_adaptador" d="M1013.712 641.008c-13.68 13.712-35.968 13.696-49.664 0l-211.712-211.712-259.056 259.040 211.744 211.728c13.712 13.712 13.712 35.952 0 49.664-13.68 13.712-35.936 13.712-49.664 0l-211.744-211.728-103.776 103.792c-13.52 13.504-31.472 20.944-50.56 20.944s-37.024-7.424-50.544-20.928c-6.88-6.88-13.168-13.072-18.928-18.72-35.024-34.448-54.32-53.424-54.432-82.608-0.096-19.44 9.232-35.296 23.36-51.6l-27.168-27.168c-133.632-133.648-154.976-344.832-50.064-503.12 8.56-12.032 17.696-23.376 27.152-34.304l-138.656-138.624 49.664-49.664 139.056 139.056c73.024-61.072 162.784-94.88 257.808-94.88 104.336 0 203.504 41.664 279.184 117.36l26.624 26.64 0.912-0.912c12.128-12.112 27.936-18.512 45.776-18.512 47.28 0 100.096 47.952 117.904 90.976 12.848 30.976 8.784 60.16-11.152 80.112l-103.808 103.808 211.744 211.68c13.728 13.728 13.728 35.968 0 49.68zM835.68 198.64c-13.776-14.736-28.064-22.304-35.008-23.488l-48.368 48.32-76.24-76.272c-62.432-62.416-143.936-96.816-229.536-96.816-86.752 0-168.48 34.432-231.92 95.584l-8.976 8.976c-12.96 13.376-25.136 27.792-36.288 43.44-85.872 129.6-68.272 303.568 41.84 413.696l76.288 76.272-24.832 24.832c-6.768 6.752-19.552 19.552-25.2 27.008 5.664 7.36 18.816 20.272 31.584 32.848 5.872 5.776 12.336 12.112 19.344 19.136l-24.832 24.832 26.624-24.848 563.76-563.76c-0.896-5.024-5.76-16.432-18.24-29.76z" />
<glyph unicode="&#xe91e;" glyph-name="deyel_proceso_modelador" d="M889.968 357.968h-112.88v44.432l253.552 254.112-285.584 286.176-253.616-254.16h-44.304v88.208c0 45.264-36.768 82.080-81.984 82.080h-289.808c-45.216 0-81.984-36.816-81.984-82.080v-240.48c0-45.264 36.768-82.080 81.984-82.080h112.832l-0.304-321.648h330.304v-97.104c0-45.28 36.784-82.112 81.984-82.112h289.808c45.2 0 81.984 36.832 81.984 82.112v240.464c0 45.264-36.784 82.080-81.984 82.080zM745.056 851.984l195.072-195.472-195.072-195.504-195.056 195.504 195.056 195.472zM75.344 518.24c-9.888 0-17.92 8.080-17.92 18.016v240.48c0 9.936 8.032 18.016 17.92 18.016h289.808c9.712 0 17.92-8.256 17.92-18.016v-240.48c0-9.76-8.208-18.016-17.92-18.016h-289.808zM252 196.592l0.24 257.584h112.928c45.2 0 81.984 36.816 81.984 82.080v88.208h44.336l221.536-222.064v-44.432h-112.864c-45.2 0-81.984-36.816-81.984-82.080v-79.296h-266.176zM907.888 35.424c0-9.776-8.208-18.048-17.92-18.048h-289.808c-9.872 0-17.92 8.096-17.92 18.048v240.464c0 9.936 8.048 18.016 17.92 18.016h289.824c9.712 0 17.92-8.256 17.92-18.016v-240.464z" />
<glyph unicode="&#xe91f;" glyph-name="deyel_carpeta" d="M902 847.504h-428.608l-36 45.008h-315.392c-67.28 0.016-122-54.72-122-121.984v-645.056c0-67.264 54.72-122 122-122h780c67.264 0 122 54.736 122 122v600.048c0 67.264-54.736 121.984-122 121.984zM524.592 783.504h377.408c31.2 0 56.72-24.768 57.952-55.664-0.192 0.112-0.4 0.176-0.608 0.288-3.728 2-7.6 3.776-11.568 5.376-1.328 0.544-2.704 1.008-4.064 1.488-2.96 1.088-5.952 2.064-9.008 2.928-1.568 0.432-3.12 0.832-4.688 1.216-3.136 0.736-6.32 1.328-9.536 1.824-1.44 0.224-2.864 0.496-4.32 0.656-4.672 0.544-9.376 0.896-14.192 0.896h-344.592l-32.784 40.992zM960 125.472c0-31.984-26.016-58-58-58h-780c-31.984 0-58 26.016-58 58v645.056c0 31.984 26.016 58 58 58h284.624l120-150.016h375.376c31.984 0 58-26.016 58-58v-495.040z" />
<glyph unicode="&#xe920;" glyph-name="deyel_lanes" d="M0 960.016v-1023.984h1024v1023.984h-1024zM64 896.016h896v-191.744h-896v191.744zM64 640.272h416v-640.24h-416v640.24zM960 0.032h-416v640.24h416v-640.24z" />
<glyph unicode="&#xe921;" glyph-name="deyel_invitar_usuario" d="M654.080-48l-640.64 114.656v64.336c0 146.352 166.032 213.008 320.32 213.008s320.32-66.656 320.32-213.008v-178.992zM79.584 122.096l508.352-90.976v99.872c0 96.336-127.872 146.784-254.176 146.784s-254.176-50.432-254.176-146.784v-8.896zM333.776 278.544c-185.392 0-336.256 149.072-336.256 332.304l0.656 16.832 214.368 179.104 69.088-86.688 51.296-40.144 42.224-21.776 52.096-16.576 47.424-7.552 45.264-1.92 6.384 0.080 2.928-33.040-0.912 33.104 79.488 7.568 23.040 4.016 39.104 7.28v-39.84c0.032-183.664-150.8-332.752-336.192-332.752zM64.032 596.432c7.376-139.776 125.552-251.664 269.744-251.664 135.488 0 248 98.816 267.216 227.104l-73.728-5.904-6.912-0.096-42.64 1.408 0.688 33.184-2.864-32.992-64.448 9.84-54.672 16.96-64.768 33.456-37.632 28.080-44.88 44.912-8.304 10.016-136.8-114.304zM516.512 565.888v0c-132.096 0-238.112 48.704-315.68 144.88l-149.376-124.832c-9.856-8.224-23.568-10.032-35.2-4.576-11.632 5.44-19.056 17.136-19.056 30 0 183.424 150.992 332.64 336.56 332.64 185.6 0 336.576-149.232 336.576-332.656 0-15.888-11.264-29.536-26.832-32.528-44.832-8.576-87.552-12.928-126.992-12.928zM206.48 791.728c1.504 0 3.008-0.112 4.528-0.32 9.232-1.28 17.488-6.4 22.752-14.096 81.472-119.072 200-163.904 369.008-138.304-14.112 133.968-129.376 238.752-269.008 238.752-120.24 0-222.384-77.68-257.44-184.8l108.992 91.072c5.968 5.008 13.472 7.696 21.168 7.696zM707.072 533.168h314.128v-66.24h-314.128v66.24zM831.072 657.36h66.144v-314.592h-66.144v314.592z" />
<glyph unicode="&#xe922;" glyph-name="deyel_adjunto_input" d="M935.632-64.256h-847.248c-48.576 0-88.096 39.52-88.096 88.080v283.152c0 48.576 39.52 88.096 88.096 88.096h847.248c48.56 0 88.096-39.52 88.096-88.096v-283.136c-0.016-48.576-39.536-88.096-88.096-88.096zM88.384 331.056c-13.296 0-24.096-10.816-24.096-24.096v-283.136c0-13.040 11.024-24.080 24.096-24.080h847.248c12.816 0 24.096 11.248 24.096 24.080v283.152c0 13.056-11.024 24.096-24.096 24.096h-847.248zM861.408 345.408c-5.408 0-10.912 1.376-15.968 4.288-15.28 8.848-20.528 28.4-11.712 43.712l76.032 131.712c8.848 15.296 28.368 20.576 43.712 11.712 15.312-8.848 20.56-28.4 11.712-43.712l-76.032-131.712c-5.936-10.272-16.688-16-27.744-16zM570.288 141.232c-22.368 0-44.592 6.272-63.872 17.408-52.064 30.064-84.16 96.448-44.72 165.2l165.488 286.624c8.832 15.312 28.352 20.576 43.696 11.712 15.312-8.832 20.56-28.4 11.712-43.712l-165.44-286.544c-20.848-36.336-1.6-64.672 21.248-77.856 22.816-13.152 56.992-15.68 78.112 20.592l279.952 484.928c0.032 0 0.032 0 0.032 0 41.472 71.872 11.504 132.032-36.56 159.792-50.096 28.928-124 25.264-168.032-50.928l-271.984-471.104c-8.832-15.296-28.4-20.56-43.712-11.712s-20.544 28.4-11.712 43.712l271.968 471.12c63.088 109.232 176.256 120.064 255.472 74.352 75.536-43.616 120.368-142.512 60-247.184 0-0.016-0.032-0.032-0.032-0.048l-279.968-484.928c-0.032-0.048-0.064-0.080-0.064-0.128-25.088-43.152-63.536-61.296-101.584-61.296z" />
<glyph unicode="&#xe923;" glyph-name="deyel_mas" d="M1024 389.232h-453.2l-0.032-453.232h-117.536v453.2h-453.232l0.016 117.552h453.232l-0.016 453.232 117.568 0.016v-453.232h453.2z" />
<glyph unicode="&#xe924;" glyph-name="deyel_ordenar_botones" d="M1024 71.76h-66.064v45.008c0 3.008-2.448 5.472-5.456 5.472h-550.928c-3.008 0-5.472-2.448-5.472-5.472v-45.008h-66.064v45.008c0 39.44 32.080 71.552 71.536 71.552h550.928c39.44 0 71.52-32.112 71.52-71.552v-45.008zM952.48 252.208h-550.928c-39.44 0-71.536 32.112-71.536 71.536v248.512c0 39.456 32.080 71.536 71.536 71.536h550.928c39.44 0 71.52-32.080 71.52-71.536v-248.512c0-39.424-32.080-71.536-71.52-71.536zM401.552 577.712c-3.008 0-5.472-2.448-5.472-5.472v-248.512c0-3.008 2.448-5.472 5.472-5.472h550.928c3.008 0 5.456 2.448 5.456 5.472v248.528c0 3.008-2.448 5.472-5.456 5.472h-550.928zM952.48 707.68h-550.928c-39.44 0-71.536 32.096-71.536 71.536v45.024h66.064v-45.008c0-3.008 2.448-5.472 5.472-5.472h550.928c3.008 0 5.456 2.448 5.456 5.472v45.008h66.064v-45.008c0-39.456-32.080-71.552-71.52-71.552zM255.744 285.264h-69.744v57.968c0 12.848-10.4 23.264-23.248 23.264h-46.496c-12.848 0-23.264-10.416-23.264-23.264v-57.968h-69.696c-20.672 0-31.088-25.056-16.448-39.68l116.224-116.272c9.072-9.072 23.808-9.072 32.864 0l116.256 116.272c14.576 14.592 4.224 39.68-16.448 39.68zM255.744 610.736h-69.744v-58c0-12.832-10.4-23.232-23.248-23.232h-46.496c-12.848 0-23.264 10.4-23.264 23.232v58h-69.696c-20.672 0-31.088 25.056-16.448 39.68l116.224 116.256c9.072 9.072 23.808 9.088 32.864 0l116.256-116.256c14.576-14.592 4.224-39.68-16.448-39.68z" />
<glyph unicode="&#xe925;" glyph-name="deyel_importar_formulario" d="M125.68 693.088h132.896v-64h-132.896v64zM125.68 558.064h132.896v-64h-132.896v64zM305.744 693.088h353.488v-64h-353.488v64zM305.744 558.064h353.488v-64h-353.488v64zM983.952 390c-8.832 3.616-17.68 5.456-26.336 5.456-11.584 0-28.752-3.376-44.768-19.424l-71.312-71.312-57.568 57.552v504.736c0 56.48-36.432 92.992-92.816 92.992h-598.192c-56.464 0-92.96-36.496-92.96-92.992v-598.048c0-56.336 36.432-92.912 92.96-93.152h504.992l57.328-57.328-71.392-71.392c-19.44-19.44-24.544-45.36-14.24-70.448 9.776-25.44 31.68-40.624 58.608-40.624l331.712 0.064c17.088 0 32.656 6.512 45.024 18.864 12.928 12.928 19.424 29.264 18.832 46.16l0.096 327.792c1.040 28.176-14.144 51.12-39.968 61.104zM589.808 896l-83.696-56.112-68.336 56.112h152.032zM347.168 896l-67.040-56.864-84.208 56.864h151.248zM93.104 239.792c-21.472 0.096-29.104 7.728-29.104 29.168v598.048c0 17.536 5.232 25.696 18.848 28.112l201.68-136.192 107.872 91.52 109.84-90.208 200.688 134.56c12.288-2.784 17.040-10.992 17.040-27.776v-440.784l-20.272 20.272c-12.4 12.4-27.84 18.736-46.192 18.832-17.776 0-33.696-6.528-46.064-18.896l-23.456-23.44h-98.208v-64h34.224l-6.496-6.48c-6.16-6.16-10.88-13.216-14.064-21.040-3.184-7.808-4.832-16.352-4.864-25.488 0-0.016 0-0.016 0-0.032s0-0.016 0-0.032c0.016-1.472 0.336-2.816 0.416-4.256 0.784-11.68 4.080-22.336 10.336-31.584 2.336-3.456 5.056-6.736 8.144-9.824l20.464-20.464h-440.832zM958.832 0.080l-329.712 0.176c-0.192 0.432-0.32 0.816-0.416 1.12 0.128 0.144 0.272 0.288 0.432 0.448l116.672 116.64-187.136 186.88 0.064 1.872 93.904 94.048 1.824-0.016 187.088-187.040 116.576 116.576c0.16 0.16 0.304 0.288 0.416 0.384 0.304-0.096 0.656-0.224 1.088-0.4l0.32-0.144-1.12-330.544z" />
<glyph unicode="&#xe926;" glyph-name="deyel_importar_proceso" d="M932.816 387.92c-8.704 3.6-17.44 5.424-25.968 5.424-11.424 0-28.352-3.36-44.208-19.328l-70.4-70.992-14.464 14.592v105.68l250.336 252.432-281.936 284.272-250.368-252.416h-43.792v87.6c0 44.976-36.288 81.568-80.896 81.568h-286.112c-44.608 0-80.912-36.592-80.912-81.568v-238.88c0-44.992 36.304-81.584 80.912-81.584h111.408l-0.288-319.472h374.944l37.296-37.616-70.48-71.072c-19.168-19.328-24.208-45.088-14.064-70.112 9.664-25.328 31.312-40.448 57.904-40.448l327.376 0.064c16.944 0 32.336 6.48 44.496 18.784 12.736 12.848 19.168 29.088 18.608 45.936l0.080 326.304c1.008 28.064-13.968 50.896-39.472 60.832zM746.176 869.904l192.576-194.16-192.576-194.192-192.576 194.192 192.576 194.16zM85.008 538.416c-9.776 0-17.712 8.016-17.712 17.872v238.88c0 9.856 7.952 17.872 17.712 17.872h286.112c9.616 0 17.712-8.176 17.712-17.872v-238.88c0-9.68-8.112-17.872-17.712-17.872h-286.112zM259.36 218.96l0.24 255.76h111.52c44.608 0 80.896 36.592 80.896 81.584v87.584h43.824l218.736-220.56v-42.016l-62.336 62.832c-12.208 12.336-27.424 18.656-45.616 18.784-17.552 0-33.28-6.496-45.472-18.832l-92.784-93.504c-12.144-12.24-18.592-28.112-18.672-46.32 0.16-17.872 6.448-33.168 18.672-45.488l39.504-39.824h-248.512zM908.016-0.224l-325.472 0.16c-0.192 0.448-0.336 0.848-0.416 1.136 0.128 0.144 0.272 0.288 0.416 0.448l115.152 116.112-184.72 186.032 0.064 1.872 92.72 93.616 1.76-0.016 184.72-186.176 115.040 116c0.176 0.16 0.32 0.32 0.448 0.416 0.304-0.096 0.672-0.224 1.072-0.4l0.32-0.144-1.104-329.056z" />
<glyph unicode="&#xe927;" glyph-name="deyel_form_agiles" d="M423.088-34.336c-6.256 0-12.48 1.936-17.728 5.776-9.68 7.040-14.32 19.168-11.776 30.896 9.264 43.088 19.6 86.048 30.704 127.648 16.256 60.8 34.864 121.6 55.424 181.184-6.496 1.184-13.008 2.4-19.568 3.664-107.792 21.024-254.272 61.584-431.568 189.744-9.792 7.056-14.432 19.328-11.808 31.152s12.032 20.944 23.888 23.168c81.728 15.392 151.952 24.144 214.96 30.528l-26.752 19.408c-10.992 7.968-15.328 22.304-10.624 35.040 4.72 12.784 17.424 20.928 30.832 19.664 136.16-11.36 289.36-41.296 351.84-55.040 2.064 7.648 2.752 13.904 2.976 19.072-0.384 4.208-0.992 8.304-1.568 12.336-3.472 24.176-8.224 57.264 27.056 93.952 0.896 0.96 1.952 2.048 3.056 3.088 21.712 21.536 54.72 38.368 100.544 51.184 37.168 10.4 37.168 10.4 55.792 24.144 5.712 4.224 12.768 9.424 22.336 16.096 47.136 33.584 96.16 68.464 151.616 93.488 14.4 6.48 31.344 0.768 38.912-13.136 7.552-13.904 3.136-31.296-10.112-39.904-42.848-27.824-81.584-55.824-115.136-83.248-0.224-0.192-0.464-0.384-0.704-0.576-23.328-19.072-43.952-37.776-61.296-55.616-1.6-1.632-2.928-2.768-4-4.336-5.136-7.648-5.136-7.648-0.512-33.328l3.040-16.784c1.744-9.136 3.936-20.512 4.64-34.304l0.496-9.456c1.040-20.208 2.080-39.264 0.8-60-6.256-101.936-41.904-191.312-106.016-265.664-23.632-27.392-48.112-50.432-71.776-72.704-49.616-46.672-92.464-87.008-115.232-154.544-4.592-18.080-8.992-36.192-13.184-54.352-1.744-7.536-6.288-14.112-12.72-18.368-0.512-0.352-1.104-0.72-1.648-1.040l-59.968-34.72c-4.72-2.752-9.968-4.112-15.216-4.112zM125.328 511.984c138.432-88.064 251.888-119.264 346.336-137.664 17.808-3.472 35.504-6.544 53.056-9.328 8.896-1.424 16.784-6.768 21.36-14.544 4.56-7.776 5.552-17.216 2.464-25.712-20.304-56.288-38.832-113.872-55.264-171.728 28.864 51.008 68.144 87.968 106.448 124.016 22.544 21.216 45.856 43.152 67.408 68.16 56.032 64.976 85.936 140.144 91.424 229.76 1.056 17.28 0.192 33.872-0.832 53.072l-0.48 9.6c-0.496 9.52-2.096 17.84-3.648 25.888l-3.184 17.488c-3.536 19.568-6.096 33.776-3.28 48.288-34.112-9.744-58.528-21.728-72.608-35.68-0.24-0.256-1.632-1.664-1.856-1.888-14.576-15.168-13.488-22.8-10.576-43.104 0.832-5.872 1.664-11.824 2.128-17.984 0.096-1.040 0.112-2.112 0.080-3.168-0.656-23.040-6.336-44.576-17.776-67.776-6.432-13.008-21.248-19.696-35.2-15.696-9.552 2.672-124.208 28.512-254.176 46.496 9.040-7.584 13.184-19.984 10.032-31.488-3.344-12.192-13.568-21.216-26.128-22.336-63.472-5.712-133.52-11.984-215.728-24.672zM585.184-64c-14.624 0-27.488 10.688-29.792 25.648-2.544 16.528 8.752 32.016 25.216 34.576 218.336 33.92 383.008 226.912 383.008 448.896 0 86.128-24.128 169.936-69.808 242.368-8.912 14.144-4.72 32.848 9.376 41.792 14.112 8.928 32.752 4.72 41.664-9.408 51.776-82.16 79.152-177.168 79.152-274.768 0-255.696-182.576-469.664-434.144-508.768-1.552-0.224-3.12-0.336-4.672-0.336zM302.272-22.432c-4.384 0-8.832 0.96-13.024 2.976-159.776 76.72-270.544 233.808-289.072 409.968-1.744 16.64 10.288 31.552 26.864 33.312 16.64 1.504 31.472-10.32 33.2-26.96 16.336-155.392 114.080-294 255.072-361.712 15.040-7.2 21.408-25.296 14.192-40.368-5.184-10.88-15.984-17.216-27.232-17.216zM76.176 626.992c-4.432 0-8.944 0.976-13.2 3.056-14.992 7.328-21.216 25.472-13.904 40.496 86.816 178.544 263.696 289.456 461.584 289.456 79.696 0 156.096-17.84 227.072-53.008 14.96-7.424 21.088-25.584 13.696-40.56-7.408-15.008-25.504-21.136-40.432-13.744-62.608 31.008-130.016 46.752-200.336 46.752-174.624 0-330.688-97.872-407.296-255.424-5.232-10.768-15.984-17.024-27.184-17.024z" />
<glyph unicode="&#xe928;" glyph-name="deyel_escoba" d="M1008.032 943.872c-18.112 18.304-47.424 18.304-65.536 0l-295.776-299.088-77.44 78.304c-15.152 15.328-35.36 23.76-56.88 23.76-21.536 0-41.728-8.432-56.88-23.76l-54.864-55.472-403.040-95.408 25.472-37.648c153.312-226.608 344.688-420.112 568.864-575.2l37.216-25.744 94.352 407.536 54.864 55.504c15.152 15.312 23.504 35.744 23.504 57.504s-8.336 42.192-23.504 57.52l-66.144 66.88 295.792 299.072c18.096 18.288 18.096 47.952 0 66.24zM589.68 37.168c-85.232 61.664-165.056 129.52-239.776 202.592l44.832 85.472-84.8-45.472c-25.488 26.32-50.24 53.376-74.384 81.008l90.416 91.424-128.32-47.072c-33.952 41.088-66.64 83.392-97.632 127.184l305.072 72.208 256-258.864-71.408-308.48zM740.096 454.144c0-5.072-1.92-9.808-5.424-13.328l-40.128-40.624-235.504 238.128 40.144 40.592c6.976 7.040 19.408 7.056 26.4 0l209.088-211.424c3.504-3.536 5.424-8.272 5.424-13.344z" />
<glyph unicode="&#xe929;" glyph-name="deyel_candado_abierto" d="M511.984 106.88c-26.512 0-48 21.488-48 48v118.192c0 26.512 21.488 48 48 48s48-21.488 48-48v-118.192c0-26.528-21.488-48-48-48zM272.080 469.904c-17.664 0-32 14.32-32 31.984l-0.080 183.152c0 149.92 121.952 271.856 271.856 271.856 149.888 0 271.84-121.952 271.84-271.84l0.304-22.704c0.224-17.664-13.92-32.192-31.6-32.416-17.552-0.768-32.176 13.92-32.4 31.584l-0.304 23.104c0 115.008-93.232 208.256-207.84 208.256-114.608 0.016-207.856-93.216-207.856-207.824l0.080-183.136c0-17.68-14.32-32.016-32-32.016 0 0 0 0 0 0zM898.784-60.912h-773.568c-44.112 0-80 35.888-80 80v389.76c0 44.112 35.888 80 80 80h773.568c44.112 0 80-35.888 80-80v-389.744c0-44.112-35.888-80.016-80-80.016zM125.216 424.864c-8.672 0-16-7.344-16-16.016v-389.744c0-8.672 7.328-16 16-16h773.568c8.672 0 16 7.328 16 16v389.744c0 8.672-7.328 16.016-16 16.016h-773.568z" />
<glyph unicode="&#xe92a;" glyph-name="deyel_testear" d="M512 896c282.784 0 512-229.472 512-512.56 0-152.544-66.624-289.536-172.288-383.44h-679.456c-105.648 93.904-172.256 230.896-172.256 383.44 0 283.088 229.216 512.56 512 512.56v0zM163.408 109.184l50.256 39.296c-25.536 32.64-45.888 69.744-59.744 110.032-13.312 38.688-20.56 80.256-20.56 123.568 0 104.688 42.384 199.456 110.896 268.048 68.512 68.576 163.184 111.008 267.744 111.008s199.216-42.432 267.744-111.008c68.496-68.592 110.88-163.36 110.88-268.048 0-43.312-7.216-84.88-20.528-123.568-13.872-40.288-34.224-77.392-59.776-110.032l50.256-39.296c30.064 38.416 53.904 81.776 70.032 128.544 15.568 45.28 24.032 93.84 24.032 144.336 0 122.352-49.536 233.152-129.664 313.328-80.096 80.224-190.752 129.824-312.976 129.824s-232.896-49.616-312.992-129.808c-80.096-80.176-129.648-190.976-129.648-313.328 0-50.496 8.464-99.056 24.048-144.336 16.096-46.768 39.936-90.128 70-128.56v0zM539.184 409.632c-17.392 17.408-45.584 17.408-62.976 0-17.376-17.408-17.376-45.632 0-63.024 17.392-17.408 45.584-17.408 62.976 0 17.376 17.392 17.376 45.616 0 63.024v0zM476.432 483.536c-16.576-5.056-32.208-14.16-45.328-27.28-42.688-42.752-42.688-112.064 0-154.8 42.704-42.752 111.92-42.752 154.64 0 13.12 13.152 22.224 28.816 27.28 45.456l97.68 234.416-234.272-97.792z" />
<glyph unicode="&#xe92b;" glyph-name="deyel_compartir" d="M839.712 304.56c-61.184 0-115.376-30.112-148.896-76.16l-330.464 165.232c5.328 17.2 8.224 35.472 8.224 54.368s-2.896 37.168-8.224 54.352l330.464 165.232c33.52-46.064 87.68-76.176 148.896-76.176 101.616 0.016 184.288 82.688 184.288 184.288 0 101.632-82.672 184.304-184.288 184.304-101.632 0-184.288-82.672-184.288-184.304 0-18.912 2.896-37.152 8.208-54.336l-330.448-165.216c-33.536 46.032-87.696 76.144-148.912 76.144-101.6 0-184.272-82.672-184.272-184.288s82.672-184.304 184.288-184.304c61.2 0 115.376 30.112 148.912 76.176l330.448-165.232c-5.312-17.2-8.208-35.456-8.208-54.368 0-101.616 82.656-184.272 184.272-184.272s184.288 82.656 184.288 184.272c0 101.616-82.672 184.288-184.288 184.288zM839.712 899.76c68.4 0 124.048-55.664 124.048-124.064 0-68.384-55.648-124.048-124.048-124.048s-124.048 55.664-124.048 124.048c0 68.416 55.648 124.064 124.048 124.064zM184.288 323.936c-68.384 0-124.048 55.664-124.048 124.064 0 68.384 55.664 124.048 124.048 124.048 68.4 0 124.064-55.664 124.064-124.048-0.016-68.4-55.664-124.064-124.064-124.064zM839.712-3.776c-68.4 0-124.048 55.664-124.048 124.048 0 68.416 55.648 124.064 124.048 124.064s124.048-55.648 124.048-124.064c0-68.4-55.632-124.048-124.048-124.048z" />
<glyph unicode="&#xe92c;" glyph-name="deyel_mp_componente" d="M511.984 960c-282.32 0-511.984-229.664-511.984-511.984s229.664-512.016 511.984-512.016 512.016 229.696 512.016 512.016-229.696 511.984-512.016 511.984zM511.984-3.744c-249.088 0-451.744 202.656-451.744 451.76 0 249.088 202.656 451.744 451.744 451.744 249.104 0 451.76-202.656 451.76-451.744 0-249.104-202.656-451.76-451.76-451.76zM737.84 663.664h-451.696c-24.912 0-45.168-20.272-45.168-45.152v-340.992c0-24.912 20.272-45.168 45.168-45.168h451.696c24.928 0 45.184 20.272 45.184 45.168v340.976c0 24.896-20.256 45.168-45.184 45.168zM301.2 468.88h421.6v-41.728h-421.6v41.728zM722.8 571.28v-42.176h-421.6v42.176h421.6zM301.2 327.232v39.664h421.6v-39.664h-421.6z" />
<glyph unicode="&#xe92d;" glyph-name="deyel_mp_crear" d="M511.984 960c-282.32 0-511.984-229.664-511.984-511.984s229.664-512.016 511.984-512.016 512.016 229.696 512.016 512.016-229.696 511.984-512.016 511.984zM511.984-3.744c-249.088 0-451.744 202.656-451.744 451.76 0 249.088 202.656 451.744 451.744 451.744 249.104 0 451.76-202.656 451.76-451.744 0-249.104-202.656-451.76-451.76-451.76zM471.216 372.464l-128.56 108-38.752-46.112 174.112-146.224 242.080 280.736-45.616 39.328z" />
<glyph unicode="&#xe92e;" glyph-name="deyel_mp_file" d="M512 960c-282.32 0-512-229.664-512-511.984 0-282.336 229.68-512.016 512-512.016 282.336 0 512 229.68 512 512.016 0 282.32-229.664 511.984-512 511.984zM512-3.76c-249.104 0-451.76 202.672-451.76 451.776 0 249.088 202.656 451.744 451.76 451.744 249.088 0 451.76-202.656 451.76-451.744 0-249.104-202.672-451.776-451.76-451.776zM621.6 308.576h-219.2c-16.624 0-30.112-13.488-30.112-30.128 0-16.624 13.488-30.112 30.112-30.112h219.2c16.624 0 30.112 13.488 30.112 30.112-0.016 16.64-13.488 30.128-30.112 30.128zM621.6 414.032h-219.2c-16.624 0-30.112-13.488-30.112-30.128 0-16.624 13.488-30.112 30.112-30.112h219.2c16.624 0 30.112 13.488 30.112 30.112-0.016 16.64-13.488 30.128-30.112 30.128zM372.304 489.36c0-16.64 13.488-30.128 30.112-30.128h219.184c16.624 0 30.112 13.488 30.112 30.128 0 16.624-13.488 30.112-30.112 30.112h-219.2c-16.624 0-30.096-13.488-30.096-30.112zM741.792 608.096l-147.472 148.192c-4.832 4.848-11.040 7.552-17.536 8.384-1.632 0.272-3.248 0.48-4.928 0.48h-244.768c-30.912 0-56.048-25.136-56.048-56.048v-522.224c0-30.912 25.136-56.048 56.048-56.048h369.808c30.912 0 56.032 25.136 56.032 56.048v394.656c0.096 0.976 0.304 1.92 0.304 2.928 0 9.568-4.464 18.112-11.44 23.632zM603.088 662.080l47.264-47.52h-47.264v47.52zM692.704 191.072h-361.424v513.856h211.584v-109.856c0-22.448 18.272-40.736 40.736-40.736h109.104v-363.264z" />
<glyph unicode="&#xe92f;" glyph-name="deyel_mp_file2" d="M512 960c-282.32 0-512-229.664-512-511.984s229.68-512.016 512-512.016 512 229.696 512 512.016-229.68 511.984-512 511.984zM512-3.744c-249.104 0-451.76 202.656-451.76 451.76 0 249.088 202.656 451.744 451.76 451.744 249.088 0 451.76-202.656 451.76-451.744 0-249.104-202.672-451.76-451.76-451.76zM512 869.648c-232.496 0-421.648-189.136-421.648-421.632s189.152-421.664 421.648-421.664 421.648 189.168 421.648 421.664c0 232.48-189.152 421.632-421.648 421.632zM512 86.592c-199.28 0-361.408 162.128-361.408 361.424 0 199.264 162.128 361.392 361.408 361.392s361.408-162.128 361.408-361.392c0-199.296-162.128-361.424-361.408-361.424zM605.936 332.816h-187.856c-16.64 0-30.128-13.488-30.128-30.128 0-16.624 13.488-30.112 30.128-30.112h187.856c16.64 0 30.128 13.488 30.128 30.112 0 16.64-13.488 30.128-30.128 30.128zM605.936 423.168h-187.856c-16.64 0-30.128-13.488-30.128-30.112 0-16.64 13.488-30.128 30.128-30.128h187.856c16.64 0 30.128 13.488 30.128 30.128 0 16.624-13.488 30.112-30.128 30.112zM387.952 483.456c0-16.624 13.488-30.112 30.128-30.112h187.856c16.64 0 30.128 13.488 30.128 30.112 0 16.64-13.488 30.128-30.128 30.128h-187.856c-16.64 0-30.128-13.488-30.128-30.128zM711.664 588.592l-126.064 126.672c-4.752 4.784-10.88 7.504-17.264 8.368-1.664 0.288-3.312 0.496-5.008 0.496h-209.808c-28.864 0-52.336-23.472-52.336-52.336v-447.632c0-28.848 23.488-52.336 52.336-52.336h316.992c28.848 0 52.336 23.488 52.336 52.336v337.872c0.080 0.976 0.288 1.92 0.288 2.928-0.032 9.568-4.496 18.112-11.472 23.632zM594.368 621.056l25.872-26h-25.872v26zM662.592 232.096h-301.184v431.808h172.736v-89.856c0-21.632 17.6-39.2 39.216-39.2h89.232v-302.752z" />
<glyph unicode="&#xe930;" glyph-name="deyel_mp_mail" d="M512 960c-282.32 0-512-229.664-512-511.984 0-282.336 229.68-512.016 512-512.016s512 229.68 512 512.016c0 282.32-229.664 511.984-512 511.984zM512-3.76c-249.104 0-451.76 202.672-451.76 451.776 0 249.088 202.656 451.744 451.76 451.744s451.76-202.656 451.76-451.744c0-249.104-202.656-451.776-451.76-451.776zM799.664 712.272h-575.344c-32.352 0-58.672-26.32-58.672-58.672v-374.24c0-32.352 26.32-58.688 58.672-58.688h575.344c32.352 0 58.672 26.336 58.672 58.688v374.24c0 32.352-26.304 58.672-58.672 58.672zM735.936 652.032l-223.936-149.344-223.936 149.344h447.872zM798.112 280.912h-572.224v340.176l286.112-190.8 286.112 190.8v-340.176z" />
<glyph unicode="&#xe931;" glyph-name="deyel_mp_volver" d="M512-64c-282.32 0-512 229.68-512 512s229.68 512 512 512c282.336 0 512-229.68 512-512s-229.664-512-512-512zM512 899.776c-249.104 0-451.76-202.672-451.76-451.776 0-249.12 202.656-451.776 451.76-451.776s451.76 202.656 451.76 451.792c0 249.088-202.656 451.76-451.76 451.76zM579.008 239.76l-208.576 208.24 208.576 208.24 42.544-42.624-165.872-165.616 165.872-165.632z" />
<glyph unicode="&#xe932;" glyph-name="deyel_soluciones" d="M0 960h253.984v-253.984h-253.984v253.984zM0 574.992h253.984v-253.984h-253.984v253.984zM0 189.968h253.984v-253.968h-253.984v253.968zM385.008 960h253.984v-253.984h-253.984v253.984zM385.008 574.992h253.984v-253.984h-253.984v253.984zM385.008 189.968h253.984v-253.968h-253.984v253.968zM770.032 960h253.968v-253.984h-253.968v253.984zM770.032 574.992h253.968v-253.984h-253.968v253.984zM770.032 189.968h253.968v-253.968h-253.968v253.968z" />
<glyph unicode="&#xe933;" glyph-name="deyel_checkbox_activado" d="M170.96 620.704v-287.728l260.8-228.048 420.544 398.384v287.712l-420.528-398.368-260.816 228.048zM28.448 960h995.552v-1024h-1024v1024h28.448zM967.104 903.104h-910.208v-910.224h910.224v910.224z" />
<glyph unicode="&#xe934;" glyph-name="deyel_checkbox_activado_full" d="M28.448 960h995.552v-1024h-1024v1024h28.448zM171.328 620.72v-287.728l260.816-228.048 420.544 398.384v287.728l-420.544-398.384-260.816 228.048z" />
<glyph unicode="&#xe935;" glyph-name="deyel_checkbox_desactivado" d="M28.448 960h995.552v-1024h-1024v1024h28.448zM967.12 903.104h-910.224v-910.224h910.24v910.224z" />
<glyph unicode="&#xe936;" glyph-name="deyel_bot" d="M909.2 536.528c-3.392 0-6.736-0.336-10.048-0.752-62.672 138.144-197.056 237.12-355.392 248.88v30.384c26.096 12.080 44.352 38.352 44.352 68.96 0 41.984-34.16 76.128-76.128 76.128-41.984 0-76.128-34.16-76.128-76.128 0-30.608 18.256-56.88 44.352-68.96v-30.384c-158.352-11.76-292.736-110.736-355.392-248.88-3.312 0.416-6.64 0.752-10.048 0.752-64.336 0-114.768-77.168-114.768-175.68s50.432-175.664 114.8-175.664c3.392 0 6.736 0.336 10.048 0.752 66.8-147.296 215.152-250.064 387.152-250.064 171.984 0 320.336 102.768 387.168 250.064 3.312-0.416 6.656-0.752 10.048-0.752 64.368 0 114.8 77.168 114.8 175.664s-50.448 175.68-114.816 175.68zM63.536 360.848c0 53.792 18.752 92.176 36.912 106.192-8.768-33.952-13.44-69.536-13.44-106.192s4.672-72.24 13.44-106.192c-18.176 14.032-36.912 52.416-36.912 106.192zM512 896.592c6.944 0 12.592-5.648 12.592-12.608 0-6.944-5.648-12.592-12.592-12.592s-12.592 5.648-12.592 12.592c0 6.96 5.648 12.608 12.592 12.608zM867.84 297.792c-5.024-28.416-13.344-55.696-24.608-81.424-55.872-127.584-183.28-216.976-331.232-216.976s-275.36 89.392-331.216 216.96c-11.264 25.728-19.584 53.008-24.608 81.424-3.632 20.496-5.616 41.552-5.616 63.072s2 42.576 5.616 63.072c5.024 28.416 13.344 55.696 24.608 81.424 55.856 127.584 183.264 216.96 331.216 216.96s275.36-89.392 331.232-216.96c11.264-25.728 19.584-53.008 24.608-81.424 3.632-20.496 5.616-41.552 5.616-63.072s-2-42.56-5.616-63.056zM923.552 254.656c8.768 33.952 13.44 69.552 13.44 106.208s-4.672 72.24-13.44 106.208c18.176-14.016 36.912-52.416 36.912-106.208s-18.736-92.192-36.912-106.208zM469.376 209.6c0-24.504-19.864-44.368-44.368-44.368s-44.368 19.864-44.368 44.368c0 24.504 19.864 44.368 44.368 44.368s44.368-19.864 44.368-44.368zM643.36 209.6c0-24.504-19.864-44.368-44.368-44.368s-44.368 19.864-44.368 44.368c0 24.504 19.864 44.368 44.368 44.368s44.368-19.864 44.368-44.368z" />
<glyph unicode="&#xe937;" glyph-name="deyel_iot" d="M1024 704.096v64h-112v79.904h-79.904v112h-64v-112h-80.048v112h-64v-112h-80.048v112h-64v-112h-80.048v112h-64v-112h-80.048v112h-64v-112h-79.904v-79.904h-112v-64h112v-80.048h-112v-64h112v-80.048h-112v-64h112v-80.048h-112v-64h112v-80.048h-112v-64h112v-79.904h79.904v-112h64v112h80.048v-112h64v112h80.048v-112h64v112h80.048v-112h64v112h80.048v-112h64v112h79.904v79.904h112v64h-112v80.048h112v64h-112v80.048h112v64h-112v80.048h112v64h-112v80.048h112zM848 112h-672v672h672v-672zM346.608 604.496c81.12 0 157.392-31.6 214.784-88.992 57.376-57.376 88.992-133.664 88.992-214.784 0-17.664 14.336-32 32-32s32 14.336 32 32c0 98.224-38.272 190.576-107.728 260.032-69.472 69.472-161.824 107.728-260.032 107.728-17.664 0-32-14.336-32-32s14.304-31.984 31.984-31.984zM351.952 538.336c-17.616 2.464-33.68-9.728-36.144-27.232s9.728-33.68 27.232-36.144c99.552-14.016 164.688-79.152 178.704-178.704 2.256-15.984 15.952-27.536 31.648-27.536 1.504 0 3.008 0.096 4.512 0.32 17.504 2.464 29.68 18.656 27.216 36.16-18.032 127.968-105.184 215.136-233.168 233.136zM375.2 370.928h-0.032c-26.512 0-47.984-21.488-47.984-48s21.504-48 48.016-48 48 21.488 48 48-21.504 48-48 48z" />
<glyph unicode="&#xe938;" glyph-name="deyel_reglas_calculo" d="M872.912 742.16l121.44 121.44c22.064 22.048 22.064 57.808 0 79.856-22.064 22.064-57.792 22.064-79.856 0l-121.44-121.424-121.424 121.424c-22.064 22.064-57.792 22.064-79.856 0-22.048-22.048-22.048-57.808 0-79.856l121.424-121.424-121.424-121.424c-22.048-22.048-22.048-57.808 0-79.856 11.024-11.024 25.488-16.544 39.936-16.544s28.896 5.52 39.936 16.544l121.424 121.424 121.424-121.424c11.024-11.024 25.488-16.544 39.936-16.544s28.896 5.52 39.936 16.544c22.064 22.048 22.064 57.808 0 79.856l-121.456 121.408zM470.144 804.016h-387.264c-34.16 0-61.856-27.696-61.856-61.856s27.696-61.84 61.856-61.84h387.264c34.16 0 61.856 27.696 61.856 61.856s-27.696 61.84-61.856 61.84zM701.024 317.6c-31.184 0-56.48-25.296-56.48-56.48v-161.36c0-31.184 25.296-56.48 56.48-56.48s56.48 25.296 56.48 56.48v161.376c0 31.184-25.296 56.464-56.48 56.464zM885.056 317.6c-31.184 0-56.48-25.296-56.48-56.48v-161.36c0-31.184 25.296-56.48 56.48-56.48s56.48 25.296 56.48 56.48v161.376c0 31.184-25.296 56.464-56.48 56.464zM457.808 67.552c-1.888-0.016-3.728-0.016-5.536-0.032-0.016 1.552-0.032 3.2-0.032 4.96v155.712c0 97.648-44.176 146.4-81.216 170.112-50.080 32.032-144.896 54.016-312.064-23.184-28.32-13.072-40.656-46.64-27.584-74.96 13.072-28.304 46.64-40.656 74.944-27.584 91.488 42.256 167.664 53.712 203.84 30.592 14.656-9.376 23.792-26.16 27.376-50-93.216 20.96-179.936 13.696-241.456-22.144-45.136-26.288-73.92-66.864-81.072-114.256-9.136-60.608 15.216-118.608 63.552-151.328 24.048-16.304 57.872-29.44 104.448-29.44 46.128 0 104.832 12.992 178.832 48.496 2.080-2.576 4.176-5.152 6.64-7.536 20.704-20.032 45.28-22.88 64.736-22.88 4.208 0 8.192 0.144 11.824 0.256 3.632 0.128 7.504 0.272 11.616 0.272 0.304 0 0.608 0 0.928 0 31.088 0 56.336 25.152 56.464 56.256 0.128 31.168-25.056 56.56-56.24 56.688zM141.904 58.944c-17.504 11.872-16.464 32.608-15.2 40.976 0.736 4.928 3.008 19.968 26.24 33.504 18.24 10.624 47.552 18.48 85.712 18.48 28.816 0 62.704-4.544 100.64-15.712v-36.48c-105.44-56.272-170.72-58.8-197.392-40.768z" />
<glyph unicode="&#xe939;" glyph-name="deyel_reglas_editable_v" d="M165.312 570.272c10.448-10.448 24.128-15.664 37.824-15.664 13.68 0 27.376 5.216 37.824 15.664l250.048 250.048c20.896 20.896 20.896 54.768 0 75.648-20.88 20.88-54.752 20.896-75.648 0l-212.224-212.224-78.928 78.912c-20.88 20.896-54.768 20.896-75.648 0-20.896-20.896-20.896-54.752 0-75.648l116.752-116.736zM1024 686.56c0.016 34.992-12.928 66.944-37.44 92.384-0.224 0.224-0.448 0.448-0.672 0.688l-143.024 143.104c-25.376 24.272-57.216 37.104-92.032 37.104-0.064 0-0.112 0-0.144 0-35.424 0-67.264-13.12-92.16-37.968l-100.608-100.656c-0.080-0.080-0.144-0.192-0.224-0.288l-525.984-525.76c-0.016-0.016-0.032-0.016-0.048-0.032s-0.016-0.032-0.032-0.032l-15.952-15.952c-10.032-10.032-15.68-23.632-15.68-37.824v-251.664c0-29.536 23.952-53.488 53.488-53.488h251.888c14.176 0 27.776 5.648 37.808 15.664l543.584 543.376c0.16 0.16 0.272 0.352 0.432 0.512l99.296 99.504c24.88 25.712 37.504 56.464 37.504 91.328zM321.376 81.296l-176.192 176.048 450.608 450.416 176.144-176.080-450.56-450.384zM106.992 144.288l101.216-101.12h-101.216v101.12zM910.176 670.192l-61.312-61.44-176.112 176 61.392 61.44c4.784 4.784 9.44 6.656 16.576 6.656 0.016 0 0.032 0 0.048 0 7.376 0 12.624-2.144 17.264-6.576l141.776-141.872c5.2-5.488 7.216-10.496 7.216-17.808-0.016-6.176-1.152-10.512-6.848-16.4zM627.824 630.576c-14.928 14.912-39.136 14.928-54.032-0.016l-328.064-328.176c-14.912-14.928-14.912-39.12 0.016-54.032 7.456-7.456 17.232-11.2 27.008-11.2s19.552 3.728 27.024 11.2l328.048 328.192c14.928 14.912 14.928 39.12 0 54.032z" />
<glyph unicode="&#xe93a;" glyph-name="deyel_reglas_no_visible" d="M1008.32 376.624c10.256 21.776 15.68 46.464 15.68 71.376s-5.424 49.6-15.68 71.376l0.016-0.016c-101.312 215.248-291.488 348.96-496.336 348.96-94.992 0-186.688-29.072-267.984-81.376l-34.128 34.128c-20.896 20.864-54.752 20.88-75.664 0-20.896-20.896-20.896-54.768 0-75.664l25.008-25.008c-57.328-54.4-106.464-122.176-143.568-201.024-10.24-21.76-15.664-46.448-15.664-71.376s5.424-49.616 15.664-71.36c101.296-215.232 291.472-348.96 496.336-348.96 92.784 0 182.432 27.664 262.288 77.664l39.824-39.824c10.448-10.448 24.128-15.664 37.824-15.664s27.392 5.216 37.824 15.664c20.896 20.88 20.896 54.768 0 75.648l-29.776 29.776c59.408 55.152 110.192 124.624 148.336 205.68zM512 134.672c-162.992 0-316.080 110.176-399.552 287.536-3.568 7.616-5.456 16.528-5.456 25.792 0 9.136 1.936 18.304 5.472 25.808 31.792 67.552 73.728 125.28 122.432 170.96l74.56-74.56c-21.648-35.744-34.352-77.472-34.352-122.224 0-130.624 106.272-236.896 236.896-236.896 44.752 0 86.48 12.704 122.208 34.336l61.936-61.936c-57.44-31.52-119.984-48.816-184.144-48.816zM632.16 398.784l-169.36 169.376c15.184 6.24 31.792 9.744 49.2 9.744 71.632 0 129.904-58.288 129.904-129.92 0-17.408-3.488-34.016-9.744-49.2zM554.352 325.296c-13.296-4.592-27.504-7.216-42.352-7.216-71.632 0-129.904 58.288-129.904 129.904 0 14.848 2.624 29.056 7.232 42.352l165.024-165.040zM711.008 319.936c23.872 36.96 37.888 80.864 37.888 128.048 0 130.624-106.272 236.896-236.896 236.896-47.184 0-91.072-14.016-128.048-37.888l-62.096 62.096c59.072 33.664 123.744 52.224 190.144 52.224 162.992 0 316.080-110.176 399.52-287.52l0.016-0.016c3.536-7.504 5.472-16.672 5.472-25.792 0-9.248-1.888-18.176-5.488-25.808-32.848-69.824-76.608-129.024-127.392-175.392l-73.12 73.152z" />
<glyph unicode="&#xe93b;" glyph-name="deyel_reglas_noeditable_v" d="M887.232 495.76l99.296 99.472c24.864 25.744 37.472 56.48 37.472 91.328 0.016 35.008-12.928 66.96-37.44 92.384-0.224 0.224-0.448 0.448-0.672 0.688l-143.040 143.104c-25.376 24.272-57.216 37.104-92.032 37.104-0.064 0-0.112 0-0.144 0-35.424 0-67.264-13.12-92.16-37.968l-100.592-100.656c-0.080-0.080-0.144-0.192-0.224-0.288l-171.328-171.248-174.672 174.688c-20.88 20.864-54.752 20.88-75.664 0-20.896-20.896-20.896-54.768 0-75.664l174.656-174.656-278.976-278.88c-0.016-0.016-0.032-0.016-0.048-0.032s-0.016-0.032-0.032-0.032l-15.952-15.952c-10.032-10.032-15.68-23.632-15.68-37.824v-251.664c0-29.536 23.952-53.488 53.488-53.488h251.888c14.176 0 27.776 5.648 37.808 15.664l294.928 294.816 177.824-177.824c10.448-10.448 24.128-15.664 37.824-15.664 13.68 0 27.392 5.216 37.824 15.664 20.896 20.88 20.896 54.768 0 75.648l-177.808 177.792 173.008 172.944c0.16 0.16 0.288 0.384 0.448 0.544zM750.72 852.848c0.016 0 0.032 0 0.048 0 7.376 0 12.624-2.144 17.264-6.576l141.792-141.872c5.184-5.472 7.216-10.48 7.2-17.808 0-6.192-1.152-10.512-6.8-16.384l-61.344-61.456-176.128 176 61.392 61.44c4.784 4.784 9.424 6.656 16.576 6.656zM106.992 144.288l101.216-101.12h-101.216v101.12zM321.376 81.296l-176.192 176.048 241.168 241.056 27.664-27.664-168.288-168.352c-14.912-14.928-14.912-39.12 0.016-54.032 7.456-7.456 17.232-11.2 27.008-11.2s19.552 3.728 27.024 11.2l168.288 168.352 94.416-94.416-241.104-240.992zM543.68 492.368l84.144 84.176c14.928 14.912 14.928 39.104 0 54.032-14.928 14.912-39.136 14.928-54.032-0.016l-84.128-84.16-27.632 27.632 133.76 133.712 176.144-176.064-133.808-133.76-94.448 94.448z" />
<glyph unicode="&#xe93c;" glyph-name="deyel_reglas_obligatorio" d="M970.512 501.488h-329.376l232.896 232.912c20.896 20.88 20.896 54.752 0 75.648s-54.752 20.896-75.648 0l-232.896-232.912v329.376c0 29.536-23.952 53.488-53.488 53.488s-53.488-23.952-53.488-53.488v-329.36l-232.912 232.88c-20.88 20.896-54.768 20.896-75.648 0-20.896-20.88-20.896-54.752 0-75.648l232.896-232.896h-329.36c-29.536 0-53.488-23.952-53.488-53.488s23.952-53.488 53.488-53.488h329.376l-232.896-232.896c-20.896-20.88-20.896-54.768 0-75.648 10.448-10.448 24.128-15.664 37.824-15.664 13.68 0 27.376 5.216 37.824 15.664l232.896 232.896v-329.376c0-29.536 23.936-53.488 53.488-53.488s53.488 23.952 53.488 53.488v329.376l232.896-232.896c10.448-10.448 24.128-15.664 37.824-15.664s27.376 5.216 37.824 15.664c20.896 20.88 20.896 54.768 0 75.648l-232.896 232.896h329.376c29.536 0 53.488 23.952 53.488 53.488s-23.952 53.488-53.488 53.488z" />
<glyph unicode="&#xe93d;" glyph-name="deyel_reglas_validaciones" d="M345.36 81.936c-13.68 0-27.376 5.216-37.824 15.664l-291.856 291.872c-20.896 20.88-20.896 54.768 0 75.648 20.896 20.896 54.768 20.896 75.648 0l254.048-254.048 587.312 587.328c20.896 20.896 54.752 20.896 75.648 0 20.896-20.88 20.896-54.752 0-75.648l-625.152-625.152c-10.432-10.448-24.128-15.664-37.824-15.664z" />
<glyph unicode="&#xe93e;" glyph-name="deyel_reglas_visible" d="M512 27.696c-204.864 0-395.040 133.696-496.336 348.944-10.24 21.76-15.664 46.432-15.664 71.36s5.424 49.616 15.68 71.392c101.296 215.216 291.472 348.912 496.32 348.912 204.864 0 395.040-133.712 496.336-348.944 10.24-21.76 15.664-46.432 15.664-71.36 0-24.912-5.424-49.6-15.664-71.36-101.312-215.248-291.488-348.944-496.336-348.944zM512 761.328c-162.976 0-316.064-110.176-399.536-287.52-3.584-7.616-5.472-16.544-5.472-25.808s1.888-18.192 5.472-25.792c83.456-177.376 236.544-287.536 399.536-287.536 162.976 0 316.064 110.16 399.536 287.52 3.584 7.616 5.472 16.544 5.472 25.808s-1.888 18.192-5.472 25.792c0 0 0 0.016-0.016 0.016-83.44 177.344-236.528 287.52-399.52 287.52zM512 211.088c-130.624 0-236.896 106.272-236.896 236.896s106.272 236.912 236.896 236.912 236.896-106.272 236.896-236.896-106.272-236.912-236.896-236.912zM512 577.904c-71.632 0-129.904-58.288-129.904-129.92s58.272-129.904 129.904-129.904 129.904 58.272 129.904 129.904-58.272 129.92-129.904 129.92z" />
<glyph unicode="&#xe93f;" glyph-name="deyel_reglas_visible_v" d="M1008.336 484.048c-82.752 175.84-224.16 298.512-387.952 336.528-28.752 6.704-57.52-11.232-64.192-40-6.672-28.784 11.232-57.52 40.016-64.208 131.68-30.576 246.608-131.856 315.344-277.888 3.536-7.504 5.472-16.672 5.472-25.792 0-9.248-1.888-18.176-5.488-25.808-83.472-177.328-236.56-287.504-399.536-287.504s-316.064 110.176-399.536 287.536c-3.584 7.616-5.472 16.544-5.472 25.792 0 9.12 1.952 18.288 5.488 25.824 8.96 19.040 18.912 37.68 29.568 55.392 15.248 25.296 7.088 58.176-18.224 73.424-25.296 15.248-58.192 7.088-73.424-18.224-12.544-20.816-24.224-42.72-34.72-65.024-10.256-21.808-15.68-46.496-15.68-71.408s5.424-49.6 15.664-71.36c101.296-215.232 291.488-348.944 496.336-348.944 204.832 0 395.024 133.712 496.32 348.928 10.272 21.776 15.68 46.464 15.68 71.376s-5.424 49.6-15.664 71.36zM275.104 412.672c0-130.624 106.272-236.896 236.896-236.896 130.64 0 236.896 106.272 236.896 236.896s-106.256 236.912-236.896 236.912c-130.624 0-236.896-106.272-236.896-236.912zM641.92 412.672c0-71.632-58.288-129.904-129.92-129.904s-129.92 58.288-129.92 129.904c0 71.648 58.288 129.92 129.92 129.92s129.92-58.272 129.92-129.92zM194.080 562.24c10.448-10.448 24.128-15.664 37.824-15.664s27.376 5.216 37.824 15.664l250.048 250.064c20.896 20.88 20.896 54.752 0 75.648-20.88 20.896-54.752 20.896-75.648 0l-212.224-212.24-78.928 78.912c-20.88 20.896-54.752 20.896-75.648 0-20.896-20.88-20.896-54.752 0-75.648l116.752-116.736z" />
<glyph unicode="&#xe940;" glyph-name="deyel_user" d="M673.68 312.064c111.392 56.752 188.032 170.144 189.856 300.976 0.288 1.728 0.464 3.488 0.464 5.28 0 4.448-0.176 8.864-0.336 13.264v25.088l-1.84-0.336c-19.408 172.272-168.848 306.752-349.824 306.752-194.096 0-352-154.672-352-344.768 0-0.96 0.32-1.856 0.4-2.8 0.88-131.888 77.824-246.336 189.92-303.456-97.68-31.936-173.184-95.76-173.184-195.392v-65.056l669.728-118.704v183.76c0.016 99.632-75.504 163.472-173.184 195.392zM512 899.088c149.52 0 272.8-111.664 286.688-253.936l-2.208-0.368c-1.84-0.272-3.6-0.448-5.424-0.704l-78.128-6.272c-16.096-0.208-31.744 0.288-46.896 1.568l-24.592 2.704c-5.312 0.752-10.512 1.68-15.696 2.64l-51.76 13.456c-8.88 3.040-17.568 6.4-26.048 10.128l-6.88 3.008c-4.88 2.288-9.632 4.816-14.368 7.344l-52.56 34.896c-3.264 2.672-6.432 5.504-9.6 8.304l-15.36 14.464c-2.368 2.368-4.752 4.688-7.072 7.136l-58.176 75.248-148.848-123.168c34.464 117.36 145.568 203.552 276.928 203.552zM224.704 603.84l147.568 122.112 10.416-12.528 1.648-1.664c11.904-13.6 24.352-26.288 37.472-37.888l2.096-2.128 6.768-5.296c6.336-5.28 12.784-10.336 19.376-15.152l8.416-6.592 5.664-3.264c13.632-9.072 27.824-17.216 42.528-24.464l7.648-4.4 11.184-4.272c9.856-4.208 19.92-8.080 30.224-11.52l11.184-4.272 11.28-2.528c12.032-3.28 24.384-6.016 36.992-8.304l11.728-2.624 7.952-0.544c22.032-3.024 44.88-4.624 68.56-4.752l5.216-0.368 18.112 0.4 6.544 0.592c19.28 0.848 39.12 2.688 59.424 5.344l4.352 0.4c-18.896-136.88-139.52-242.784-285.056-242.784-153.84 0-279.856 118.336-287.296 266.496zM782.88 9.264l-541.744 96.016v11.408c0 102.336 136.272 155.872 270.864 155.872 72.96 0 143.216-15.664 192.768-42.992 51.808-28.576 78.096-66.56 78.096-112.896v-107.408z" />
<glyph unicode="&#xe941;" glyph-name="deyel_pata_lineas" d="M871.76-64.16c-11.216 0-22.512 1.728-33.504 5.232-35.552 11.328-63.52 40.224-74.784 76.592-4.848 4.192-13.104 10.176-26.784 17.584-54.96 28.784-107.664 25.76-163.456 22.528-49.792-2.864-101.296-5.824-150.384 17.472-48.848 23.232-80.496 65.584-111.104 106.528-33.040 44.224-67.2 89.936-124.544 114.56-13.648 5.632-23.040 8.176-29.152 9.296-34.080-15.024-73.504-12-105.152 8.656-52.384 34.16-68.624 106.384-36.176 160.992 16.16 27.216 41.68 46.080 71.808 53.088 29.472 6.88 59.84 1.456 85.44-15.232 31.328-20.432 51.056-55.744 52.88-93.76 8.288-12.224 24.976-28.8 45.536-45.104 30.864-16.32 47.872-9.216 58.032-2.336 57.584 38.832 81.216 203.168 66.4 326.368-2.992 19.12-7.232 35.776-11.856 46.528-30.384 21.024-49.52 56.416-50.528 94.56-1.728 64.736 47.76 118.88 110.288 120.704 29.728 0.976 57.952-10.032 79.792-30.688 22.944-21.712 36.064-51.36 36.912-83.536 1.024-38.112-16.176-74.528-45.376-97.264-0.8-2.16-1.648-4.8-2.544-8.016-5.056-31.392-8.032-75.616-8.16-121.68l1.824-67.744c7.76-135.792 35.088-177.84 44.976-182.528 11.952-5.632 51.456-0.176 124.512 56.304l57.984 50.256c19.136 18.432 37.472 38.208 52.144 56.416 5.264 7.36 8.608 13.040 10.72 17.296-3.056 37.84 11.904 75.52 40.24 100.064 23.328 20.208 52.8 29.76 83.232 26.928 30.592-2.896 58.144-18.048 77.584-42.656 39.152-49.584 32.416-123.36-15.024-164.464-28.624-24.816-67.248-33.312-102.912-23.248-7.552-2.512-20.496-8.192-40.128-20.976-79.472-55.472-161.92-155.6-155.104-219.648 1.504-14.208 7.696-34.752 43.472-50.4 28.544-7.104 56.064-10.496 72.4-8.912 29.104 23.76 68.016 31.536 103.776 20.112 59.424-18.912 93.248-84.448 75.376-146.096-8.944-30.832-29.104-55.92-56.736-70.688-16.32-8.672-34.048-13.088-51.92-13.088zM769.024 86.208c19.36-10.832 33.968-21.712 43.744-32.56 3.472-3.84 5.904-8.512 7.024-13.584 4.464-19.84 18.528-35.776 36.72-41.552 12.912-4.128 26.704-2.832 38.768 3.6 13.184 7.024 22.864 19.216 27.232 34.304 8.848 30.56-7.2 62.816-35.776 71.904-18 5.76-37.024 1.008-50.976-12.544-3.92-3.808-8.768-6.48-14.080-7.76-15.568-3.68-34.336-3.616-52.656-1.808zM282.416 306.688c31.712-27.424 55.552-59.328 77.584-88.816 28.608-38.288 53.328-71.36 88.704-88.176 35.136-16.688 74.944-14.4 121.056-11.76 32.4 1.84 67.2 3.856 103.648-0.896-34.352 25.040-45.344 56.816-47.968 81.504-5.2 48.72 19.040 104.64 57.552 156.56-66.352-45.152-118.992-58.912-156.752-40.88-39.168 18.512-64.496 80.848-75.424 185.472-13.344-77.040-40.576-146.56-86.736-177.696-18.432-12.432-45.904-23.104-81.664-15.312zM152.608 366.688c0.4 0 0.816-0.016 1.216-0.032 13.792-0.56 30.432-4.544 49.52-11.888-13.424 13.232-25.792 27.84-33.296 42.384-2.352 4.544-3.488 9.6-3.344 14.704 0.592 20.64-9.232 40.112-25.648 50.816-11.712 7.632-25.52 10.128-38.88 7.008-14-3.248-25.952-12.192-33.664-25.168-16.176-27.216-8.416-62.992 17.28-79.76 15.984-10.4 35.488-11.12 52.16-1.872 4.496 2.496 9.536 3.808 14.656 3.808zM910.56 616.16c-12.128 0-23.824-4.432-33.392-12.704-15.040-13.024-22.352-33.824-19.088-54.272 0.8-5.024 0.304-10.16-1.408-14.96-4.224-11.696-11.248-24.272-21.488-38.48-0.288-0.432-0.624-0.832-0.944-1.248-1.776-2.208-3.6-4.432-5.456-6.672 18.144 10.032 33.936 16.256 47.44 18.736 5.536 1.008 11.12 0.464 16.32-1.536 17.616-6.832 36.912-3.344 51.536 9.296 23.44 20.32 26.672 56.928 7.2 81.6-9.152 11.584-21.92 18.688-35.968 20-1.616 0.16-3.2 0.24-4.752 0.24zM447.936 899.888c-0.48 0-0.976 0-1.472-0.016-29.424-0.864-52.672-27.28-51.824-58.88 0.544-20.56 11.424-39.328 28.368-48.992 4.624-2.64 8.48-6.448 11.136-11.040 6.944-11.968 12.752-28.128 17.344-48.224 0.848 6.72 1.776 13.136 2.768 19.168 0.16 0.944 0.368 1.888 0.608 2.816 2.832 10.688 6.128 19.616 10.032 27.28 2.4 4.704 6 8.688 10.432 11.568 16.48 10.672 26.368 30.112 25.808 50.72-0.416 16.048-6.848 30.736-18.080 41.36-9.728 9.216-22.16 14.24-35.12 14.24z" />
<glyph unicode="&#xe942;" glyph-name="deyel_tedis" d="M1012.32 333.472l-0.352 0.352c-0.416 0.416-23.68 25.472-44.832 62.448-7.808 13.648-15.12 28.656-20.464 44.112 22.576 25.168 40.88 53.152 54 83.232 15.088 34.64 23.328 71.84 23.328 110.544 0 91.168-45.008 173.312-117.776 232.432-71.040 57.712-168.736 93.408-276.256 93.408-107.504 0-205.216-35.696-276.256-93.408-72.768-59.12-117.776-141.28-117.776-232.432 0-8.624 0.496-17.792 1.472-27.44 0.016-0.16 0.064-0.32 0.080-0.496-44.816-16.064-85.44-38.64-119.728-66.496-72.752-59.12-117.76-141.28-117.76-232.432 0-38.704 8.24-75.904 23.344-110.544 13.12-30.080 31.424-58.048 54-83.216-5.344-15.456-12.672-30.48-20.48-44.128-21.12-36.928-44.304-61.92-44.704-62.32l-0.592-0.592c-5.808-6.080-9.504-13.632-10.88-21.616-1.312-7.712-0.416-15.92 2.944-23.648 3.328-7.696 8.672-13.92 15.312-18.288v-0.112c6.688-4.416 14.56-6.832 22.816-6.832 51.712 0 97.008 12.432 134.176 28.688 28.912 12.64 52.784 27.552 70.848 40.672 20.48-6.832 41.904-12.352 64.144-16.368 27.168-4.896 54.976-7.536 83.072-7.536 107.52 0 205.216 35.696 276.24 93.408 72.768 59.12 117.776 141.28 117.776 232.432 0 5.984-0.224 11.936-0.608 17.84 16.56-11.232 36.752-23.152 60.608-33.584 37.168-16.24 82.48-28.672 134.176-28.672 8.144 0 15.984 2.448 22.8 6.896l0.048-0.080c6.592 4.304 11.92 10.592 15.312 18.4 3.344 7.744 4.272 15.936 2.944 23.648-1.344 8-5.088 15.568-10.976 21.728zM632.032 121.888c-60.56-49.2-144.672-79.632-238-79.632-25.312 0-49.504 2.208-72.4 6.352-24.048 4.336-47.312 10.848-69.472 19.184l-16.144 6.080-13.424-10.704c-16.016-12.768-40.16-29.472-70.864-42.896-19.792-8.656-42.4-15.968-67.504-20.032 8.144 11.184 17.056 24.448 25.376 39.008 12.704 22.192 24.48 47.936 31.232 75.184l4.096 16.528-12.064 12.080c-23.152 23.216-41.536 49.52-53.936 77.952-11.712 26.88-18.112 55.92-18.112 86.304 0 72.032 36.384 137.616 95.2 185.392 36.624 29.76 81.968 52.48 132.656 65.936 3.28 0.864 6.576 1.696 9.904 2.496 6.944 1.648 13.984 3.088 21.104 4.384 3.28 0.592 6.544 1.232 9.872 1.744 7.952 1.232 16.016 2.192 24.16 2.976 2.512 0.24 4.944 0.592 7.488 0.784 10.8 0.832 21.744 1.328 32.832 1.328s22.032-0.496 32.832-1.328c3.52-0.272 6.944-0.784 10.416-1.136 7.232-0.752 14.448-1.536 21.52-2.64 4.032-0.624 7.952-1.456 11.936-2.192 6.384-1.2 12.752-2.448 18.976-3.936 4.080-0.976 8.080-2.064 12.096-3.168 5.968-1.616 11.872-3.344 17.68-5.232 3.952-1.28 7.872-2.624 11.76-4.032 5.664-2.048 11.232-4.224 16.72-6.512 3.744-1.552 7.488-3.12 11.136-4.784 5.456-2.48 10.752-5.152 16-7.872 3.424-1.776 6.896-3.504 10.24-5.36 5.344-2.992 10.464-6.208 15.568-9.44 2.976-1.888 6.048-3.664 8.944-5.632 7.68-5.216 15.136-10.64 22.192-16.368 7.264-5.904 14.176-12.096 20.736-18.512 0.656-0.64 1.216-1.328 1.856-1.968 5.664-5.664 11.088-11.488 16.176-17.52 1.376-1.616 2.592-3.328 3.904-4.976 4.16-5.184 8.208-10.448 11.92-15.856 1.408-2.048 2.672-4.176 4.016-6.256 3.344-5.2 6.528-10.448 9.44-15.84 1.248-2.288 2.384-4.64 3.536-6.96 2.672-5.344 5.152-10.752 7.376-16.256 0.992-2.448 1.936-4.928 2.848-7.408 2.016-5.536 3.808-11.152 5.376-16.832 0.704-2.56 1.408-5.104 2.032-7.696 3.808-16.016 5.984-32.48 5.984-49.328-0.016-72.032-36.4-137.616-95.216-185.408zM883.168 441.28c6.752-27.232 18.544-52.976 31.232-75.152 8.336-14.56 17.232-27.824 25.376-39.008-25.088 4.064-47.712 11.376-67.488 20.016-30.72 13.424-54.848 30.144-70.864 42.896l-13.44 10.704-14.512-5.472c-10.896 32.272-27.616 62.464-49.216 89.84-0.032 0.032-0.048 0.064-0.080 0.096-10.688 13.536-22.56 26.368-35.504 38.4-0.208 0.192-0.416 0.4-0.64 0.592-5.728 5.312-11.6 10.528-17.744 15.52-0.608 0.496-1.312 0.928-1.92 1.424-7.232 5.792-14.72 11.392-22.464 16.72l0.032 0.064c-0.592 0.4-1.248 0.752-1.84 1.152-3.28 2.224-6.752 4.24-10.112 6.368-6.016 3.824-12.048 7.632-18.336 11.168-4.016 2.256-8.176 4.336-12.304 6.48-5.968 3.104-11.952 6.144-18.128 8.976-4.448 2.048-8.976 3.936-13.52 5.84-6.16 2.576-12.4 5.056-18.752 7.36-4.72 1.728-9.472 3.36-14.288 4.944-6.512 2.128-13.12 4.080-19.792 5.92-4.832 1.344-9.664 2.672-14.576 3.856-7.040 1.696-14.208 3.12-21.408 4.496-4.752 0.912-9.44 1.888-14.256 2.656-8.064 1.28-16.256 2.192-24.48 3.056-4.112 0.432-8.16 1.040-12.304 1.36-12.448 0.976-25.040 1.568-37.792 1.568-12.176 0-24.32-0.576-36.4-1.504-5.072-0.384-10.048-1.056-15.072-1.6s-10.096-0.896-15.088-1.6c-1.92-0.272-3.776-0.704-5.696-0.992-5.152-0.784-10.224-1.728-15.296-2.672-3.136-0.592-6.352-1.008-9.472-1.664-0.16 3.52-0.24 7.2-0.24 11.056 0 72.032 36.384 137.616 95.2 185.392 60.56 49.2 144.672 79.632 238 79.632s177.456-30.432 238.016-79.632c58.816-47.792 95.2-113.376 95.2-185.392 0-30.4-6.384-59.44-18.112-86.304-12.4-28.432-30.8-54.736-53.952-77.952l-12.064-12.096 4.096-16.512zM424.544 338.608v125.008h-60.816v-125.008h-124.992v-60.816h124.992v-124.992h60.816v124.992h124.992v60.816h-30.4z" />
<glyph unicode="&#xe943;" glyph-name="deyel_modeladores" d="M355.76 896.688c-3.504 12.752-15.2 22.112-29.056 22.112l-140.368-0.064c-12.16 0-23.6-7.44-28.144-19.472l-155.408-412.96c-1.792-3.84-2.784-8.128-2.784-12.64 0-16.64 13.504-30.144 30.144-30.144l130.896 0.112c12.88 0 24.8 8.352 28.72 21.312l14.32 46.96h100.88l13.456-44.304c2.8-13.744 14.96-24.096 29.536-24.096l134.272 0.112c3.488 0 7.024 0.608 10.48 1.888 15.536 5.776 23.44 23.072 17.664 38.608l-154.608 412.576zM370.176 503.808l-14.256 46.96c-3.936 12.96-15.84 21.328-28.72 21.312v0.112h-145.296c-14.56 0-26.704-10.336-29.52-24.064l-13.536-44.336h-65.232l133.52 354.72h98.8l132.928-354.72h-68.688zM248.208 802.592c-7.504-2.272-12.944-8.112-15.040-15.088l-45.472-149.072c-3.6-11.904 3.104-24.48 15.008-28.080 2.176-0.656 4.368-0.976 6.528-0.976v-0.096h90.8c12.48 0 22.608 10.128 22.608 22.608 0 3.024-0.592 5.904-1.68 8.56l-44.688 147.136c-3.6 11.904-16.176 18.624-28.064 15.008zM239.68 654.496l15.024 49.248 14.96-49.248h-29.984zM765.136 425.616c-68.032 0-129.632-27.584-174.224-72.176s-72.176-106.192-72.176-174.224c0-68.032 27.584-129.632 72.176-174.224s106.192-72.176 174.224-72.176c68.032 0 129.632 27.584 174.224 72.176s72.176 106.192 72.176 174.224c0 68.032-27.584 129.632-72.176 174.224s-106.192 72.176-174.224 72.176zM896.736 47.616c-33.664-33.664-80.208-54.496-131.6-54.496-51.408 0-97.936 20.832-131.616 54.496-33.68 33.68-54.512 80.208-54.512 131.6 0 51.408 20.832 97.936 54.496 131.616 33.664 33.664 80.208 54.496 131.616 54.496s97.936-20.832 131.616-54.496c33.664-33.664 54.496-80.208 54.496-131.616 0.016-51.392-20.816-97.936-54.496-131.6zM475.824 341.568c-4.16 9.888-10.384 18.992-18.656 27.040-8.016 8.096-16.976 14.272-26.896 18.48-10.272 4.368-21.152 6.56-32.624 6.56h-282.928c-11.472 0-22.352-2.192-32.624-6.56-9.92-4.224-18.896-10.384-26.912-18.512-8.256-8.032-14.48-17.12-18.64-27.040l0.096-0.048c-4.336-10.288-6.496-21.168-6.496-32.368v-283.408c0-11.392 2.128-22.288 6.4-32.448h0.112c4.224-10.032 10.384-19.104 18.464-26.976 8.080-8.16 17.072-14.352 26.976-18.56h0.112c10.288-4.368 21.136-6.544 32.512-6.544v0.112l282.912-0.128c11.488 0 22.352 2.176 32.624 6.56 9.888 4.192 18.864 10.368 26.928 18.528 8.256 8.048 14.48 17.136 18.624 27.008l-0.096 0.048c4.336 10.336 6.512 21.216 6.512 32.416v283.392c0 11.2-2.16 22.064-6.512 32.416l0.112 0.032zM421.952 25.728c0-3.568-0.528-6.656-1.584-9.152h-0.112c-1.136-2.688-2.8-5.136-5.008-7.264l-0.704-0.704c-2.464-2.528-5.072-4.368-7.824-5.536-2.512-1.072-5.552-1.616-9.088-1.616v-0.128l-282.912 0.128c-3.584 0-6.608 0.528-9.104 1.552l0.016 0.048c-2.736 1.168-5.344 3.008-7.824 5.536l-0.592 0.592c-2.4 2.32-4.144 4.784-5.216 7.328l0.096 0.048c-1.12 2.672-1.68 5.744-1.68 9.152v283.408c0 3.568 0.528 6.64 1.568 9.136h0.112c1.12 2.688 2.848 5.184 5.12 7.392l0.464 0.48c2.544 2.592 5.184 4.48 7.936 5.648 2.528 1.072 5.552 1.616 9.088 1.616h282.912c3.536 0 6.56-0.544 9.088-1.616 2.752-1.168 5.392-3.056 7.936-5.648l0.592-0.592c2.208-2.128 3.872-4.576 5.008-7.264h0.112c1.056-2.496 1.584-5.568 1.584-9.152v-283.392zM743.824 466.752l21.312-21.312 258.864 258.864-258.88 258.88-258.864-258.88 237.568-237.552zM765.136 877.952l173.632-173.648-173.632-173.632-173.648 173.632 173.648 173.648zM786.736 640.096l21.312-21.312 42.608 42.608-42.912 42.912 42.912 42.912-42.608 42.624-42.912-42.912-42.928 42.912-42.608-42.624 42.912-42.912-42.912-42.912 42.624-42.608 42.912 42.912z" />
</font>
</defs>
</svg>
